<?xml version="1.0" encoding="UTF-8" standalone="no"?>
<svg
   width="1155.0863pt"
   height="636.43768pt"
   viewBox="0 0 1155.0863 636.43768"
   version="1.1"
   id="svg658"
   sodipodi:docname="averaged-decoding_balanced-accuracy_l2logreg_probability_dimreduction-None.svg"
   inkscape:export-filename="../../home/adina/repos/PhD-thesis/graphics/memento/decoding/averaged-decoding_balanced-accuracy_l2logreg_probability_dimreduction-None.png"
   inkscape:export-xdpi="298.456"
   inkscape:export-ydpi="298.456"
   inkscape:version="1.2.2 (b0a8486541, 2022-12-01)"
   xmlns:inkscape="http://www.inkscape.org/namespaces/inkscape"
   xmlns:sodipodi="http://sodipodi.sourceforge.net/DTD/sodipodi-0.dtd"
   xmlns:xlink="http://www.w3.org/1999/xlink"
   xmlns="http://www.w3.org/2000/svg"
   xmlns:svg="http://www.w3.org/2000/svg"
   xmlns:rdf="http://www.w3.org/1999/02/22-rdf-syntax-ns#"
   xmlns:cc="http://creativecommons.org/ns#"
   xmlns:dc="http://purl.org/dc/elements/1.1/">
  <sodipodi:namedview
     id="namedview660"
     pagecolor="#ffffff"
     bordercolor="#666666"
     borderopacity="1.0"
     inkscape:showpageshadow="2"
     inkscape:pageopacity="0.0"
     inkscape:pagecheckerboard="0"
     inkscape:deskcolor="#d1d1d1"
     inkscape:document-units="pt"
     showgrid="false"
     inkscape:zoom="0.99022004"
     inkscape:cx="826.58396"
     inkscape:cy="473.6321"
     inkscape:window-width="2560"
     inkscape:window-height="1371"
     inkscape:window-x="0"
     inkscape:window-y="1472"
     inkscape:window-maximized="1"
     inkscape:current-layer="figure_1" />
  <metadata
     id="metadata2">
    <rdf:RDF>
      <cc:Work>
        <dc:type
           rdf:resource="http://purl.org/dc/dcmitype/StillImage" />
        <dc:date>2023-09-07T11:30:18.877398</dc:date>
        <dc:format>image/svg+xml</dc:format>
        <dc:creator>
          <cc:Agent>
            <dc:title>Matplotlib v3.7.1, https://matplotlib.org/</dc:title>
          </cc:Agent>
        </dc:creator>
      </cc:Work>
    </rdf:RDF>
  </metadata>
  <defs
     id="defs6">
    <style
       type="text/css"
       id="style4">*{stroke-linejoin: round; stroke-linecap: butt}</style>
  </defs>
  <g
     id="figure_1"
     transform="translate(3.0862483,-26.48)">
    <g
       id="patch_1"
       transform="matrix(1,0,0,0.95541092,0,28.893724)">
      <path
         d="M 0,648 H 1152 V 0 H 0 Z"
         style="fill:#ffffff"
         id="path8" />
    </g>
    <g
       id="axes_1">
      <g
         id="patch_2">
        <path
           d="M 54.02,606.04 H 1141.2 V 26.88 H 54.02 Z"
           style="fill:#ffffff"
           id="path11" />
      </g>
      <g
         id="PolyCollection_1">
        <defs
           id="defs15">
          <path
             id="m5fbfe7d3c4"
             d="m 114.4311,-264.68976 v 54.49789 l 1.09939,11.19297 1.09938,1.08945 1.09938,14.0372 1.09939,-2.36381 1.09938,-3.95543 1.09938,-16.90511 1.09939,2.9548 1.09938,8.24638 1.09938,-12.20338 1.09939,-17.34382 1.09938,-14.31209 1.09938,-4.08893 1.09938,-4.51896 1.09939,-7.74495 1.09938,-0.89375 1.09938,-7.15709 1.09939,3.43779 1.09938,-24.51685 1.09938,-11.9627 1.09939,-8.30351 1.09938,-6.08347 1.09938,11.81325 1.09939,-1.93869 1.09938,-3.44511 1.09938,-24.60361 1.09939,-6.56624 1.09938,-2.78273 1.09938,-2.14878 1.09939,-4.03942 1.09938,0.96201 1.09938,5.2804 1.09938,-7.96543 1.09939,-1.6247 1.09938,-15.5593 1.09938,14.35308 1.09939,-19.62871 1.09938,-1.48505 1.09938,9.29797 1.09939,-1.94755 1.09938,-5.45265 1.09938,-6.57863 1.09939,-0.87083 1.09938,5.85675 1.09938,4.26856 1.09939,-3.72485 1.09938,-26.48112 1.09938,18.85541 1.09939,14.42913 1.09938,-9.93833 1.09938,3.84421 1.09938,-15.22107 1.09939,16.5452 1.09938,-12.86863 1.09938,12.84378 1.09939,20.31844 1.09938,-22.31707 1.09938,-3.04363 1.09939,16.6828 1.09938,6.12419 1.09938,-8.15426 1.09939,-10.91952 1.09938,4.50806 1.09938,1.01622 1.09939,-12.5758 1.09938,0.64389 1.09938,23.42955 1.09939,-0.38897 1.09938,-1.99188 1.09938,-22.82483 1.09938,0.33122 1.09939,6.6047 1.09938,-3.20618 1.09938,-32.84272 1.09939,-3.97669 1.09938,-5.59172 1.09938,13.37717 1.09939,1.81519 1.09938,-5.40369 1.09938,6.15884 1.09939,0.25574 1.09938,-15.18008 1.09938,-2.53361 1.09939,-1.84164 1.09938,6.25688 1.09938,-13.40524 1.09938,2.5243 1.09939,-10.49411 1.09938,9.89259 1.09938,22.26353 1.09939,-15.95561 1.09938,10.48414 1.09938,-9.55222 1.09939,18.58132 1.09938,-0.40922 1.09938,-7.54386 1.09939,-1.41989 1.09938,-6.20236 1.09938,-1.34534 1.09939,21.40664 1.09938,-2.59811 1.09938,-10.76735 1.09939,-5.8749 1.09938,-6.66115 1.09938,-1.80471 1.09938,-17.65069 1.09939,15.39468 1.09938,26.26999 1.09939,-10.77975 1.09938,6.97059 1.09938,-19.40434 1.09938,16.54249 1.09939,17.60425 1.09938,-5.93467 1.09938,9.17831 1.09939,-11.01647 1.09938,15.86339 1.09938,7.76548 1.09939,7.32351 1.09938,2.22801 1.09938,-26.54806 1.09939,7.71262 1.09938,4.26568 1.09938,4.06293 1.09938,1.91436 1.09939,-2.89549 1.09938,4.1295 1.09938,-8.50837 1.09939,0.67043 1.09938,-8.85597 1.09938,10.79935 1.09939,-1.95793 1.09938,0.93047 1.09938,5.34613 1.09939,-7.31213 1.09938,-0.79436 1.09938,-4.90379 1.09939,-17.248 1.09938,12.10321 1.09938,9.45589 1.09939,-5.23765 1.09938,-10.16044 1.09938,14.22606 1.09938,-0.4343 1.09939,13.0821 1.09938,0.3186 1.09938,5.03286 1.09939,-10.48686 1.09938,-7.66034 1.09938,2.21061 1.09939,-3.34092 1.09938,-5.93164 1.09938,9.37919 1.09939,6.55683 1.09938,-2.18366 1.09938,3.55225 1.09939,4.2836 1.09938,-0.21522 1.09938,5.45746 1.09939,13.09828 1.09938,-37.13644 1.09938,-5.15908 1.09939,13.87887 1.09938,-10.90236 1.09938,14.6688 1.09938,1.85985 1.09939,11.09469 1.09938,-4.54712 1.09938,10.17222 1.09939,38.65941 1.09938,-25.27601 1.09938,5.79405 1.09939,-10.8591 1.09938,-2.68245 1.09938,-12.96275 1.09939,13.69389 1.09938,8.59155 1.09938,8.4166 1.09938,-1.27093 1.09939,-3.52245 1.09938,18.76225 1.09939,-10.40661 1.09938,-18.29458 1.09938,-5.53507 1.09938,-6.65164 1.09939,10.32713 1.09938,1.89953 1.09938,-6.21454 1.09939,-12.21534 1.09938,-16.98461 1.09938,11.54693 1.09939,1.25634 1.09938,17.09762 1.09938,5.71769 1.09939,25.18192 1.09938,-4.41773 1.09938,-3.35568 1.09939,-1.2316 1.09938,-5.05739 1.09938,1.54594 1.09938,-5.03596 1.09939,-6.56399 1.09938,-2.86638 1.09938,13.4533 1.09939,-11.82677 1.09938,-12.00741 1.09938,32.36731 1.09939,9.64934 1.09938,2.04658 1.09938,-4.5701 1.09939,16.08931 1.09938,-2.93505 1.09938,-13.63382 1.09939,16.31187 1.09938,6.17337 1.09938,-1.78007 1.09939,-19.45427 1.09938,22.66416 1.09938,0.60942 1.09938,-2.3171 1.09939,4.43421 1.09938,-4.22361 1.09938,20.13771 1.09939,6.1921 1.09938,-10.99095 1.09938,-10.54358 1.09939,5.38567 1.09938,-22.30724 1.09938,4.87963 1.09939,-1.30678 1.09938,4.29788 1.09938,-6.28827 1.09939,3.29966 1.09938,-1.04631 1.09938,-28.05054 1.09938,3.47519 1.09939,-17.32461 1.09938,18.3741 1.09938,-1.92767 1.09939,0.5966 1.09938,27.56411 1.09938,11.01217 1.09939,19.86512 1.09938,0.58766 1.09938,-2.47633 1.09939,11.75602 1.09938,-27.04592 1.09938,-11.00555 1.09939,22.09167 1.09938,12.91251 1.09938,1.35136 1.09939,-1.98661 1.09938,4.36175 1.09938,-0.6262 1.09938,-5.91954 1.09939,6.53551 1.09938,4.44118 1.09938,14.48071 1.09939,1.40743 1.09938,-0.71854 1.09938,-18.28014 1.09939,0.0751 1.09938,14.59219 1.09938,-7.94562 1.09939,-13.14875 1.09938,7.99223 1.09938,-16.58211 1.09939,5.72088 1.09938,-9.37879 1.09938,-11.34858 1.09939,13.40146 1.09938,10.8434 1.09938,4.72119 1.09938,-10.48 1.09939,-6.5058 1.09938,15.05988 1.09938,30.91503 1.09939,2.84509 1.09938,-10.71293 1.09938,-11.01495 1.09939,13.73299 1.09938,12.86423 1.09938,-8.68533 1.09939,5.62237 1.09938,6.95679 1.09938,5.96037 1.09939,-3.95096 1.09938,-1.28731 1.09938,2.09012 1.09938,-9.73229 1.09939,-14.53525 1.09938,-2.05084 1.09938,-2.56457 1.09939,-5.25829 1.09938,-4.16815 1.09938,-3.83573 1.09939,2.54943 1.09938,2.55258 1.09938,-20.78123 1.09939,5.73036 1.09938,9.19689 1.09938,2.1769 1.09939,2.52417 1.09938,-11.05721 1.09938,9.19309 1.09939,8.72427 1.09938,15.61646 1.09938,-8.09491 1.09938,-1.2483 1.09939,1.75996 1.09938,4.11894 1.09938,-6.41613 1.09939,-8.44582 1.09938,-4.39071 1.09938,14.68739 1.09939,1.04675 1.09938,-5.4697 1.09938,-2.51801 1.09939,3.44722 1.09938,17.49913 1.09938,-12.24294 1.09939,9.00356 1.09938,-31.9248 1.09938,5.42766 1.09939,6.8879 1.09938,-7.70273 1.09938,2.36654 1.09938,-8.43849 1.09939,-7.99359 1.09938,5.44668 1.09939,7.43199 1.09938,-7.98332 1.09938,-5.76725 1.09938,3.41208 1.09939,15.0595 1.09938,9.2175 1.09938,2.29748 1.09939,-2.42742 1.09938,10.47578 1.09938,-1.11138 1.09939,2.12363 1.09938,-13.61866 1.09938,14.12103 1.09939,0.87675 1.09938,2.40238 1.09938,-7.88115 1.09938,-21.11027 1.09939,18.68008 1.09938,-10.90676 1.09938,-5.46147 1.09939,3.81517 1.09938,2.66171 1.09938,1.59905 1.09939,-4.08028 1.09938,9.84447 1.09938,-4.42912 1.09939,8.2795 1.09938,0.81365 1.09938,7.45078 1.09939,1.24882 1.09938,-5.04693 1.09938,10.2369 1.09939,-11.77401 1.09938,6.99181 1.09938,1.43949 1.09939,-20.0074 1.09938,1.97463 1.09938,3.153 1.09938,-4.2552 1.09939,5.93043 1.09938,-1.43519 1.09938,4.05292 1.09939,5.1856 1.09938,-15.9571 1.09938,12.81525 1.09939,-2.52495 1.09938,4.14073 1.09938,-8.68966 1.09939,2.0443 1.09938,16.44437 1.09938,-1.16814 1.09939,17.44266 1.09938,-21.37441 1.09938,-9.89067 1.09939,2.09171 1.09938,7.23323 1.09938,9.89578 1.09938,-3.61531 1.09939,2.72157 1.09938,-2.81614 1.09938,4.22405 1.09939,-8.17403 1.09938,12.83733 1.09938,-20.59367 1.09939,-4.83009 1.09938,6.58792 1.09938,-23.11393 1.09939,10.64789 1.09938,6.46752 1.09938,-13.77016 1.09938,0.57734 1.09939,9.40659 1.09938,1.40996 1.09939,3.73799 1.09938,14.56256 1.09938,24.51043 1.09938,-6.87082 1.09939,-1.13389 1.09938,-1.79734 1.09938,-7.60324 1.09939,-13.05542 1.09938,-9.00453 1.09938,-0.76688 1.09939,15.3853 1.09938,-3.96571 1.09938,-0.24217 1.09939,-6.10202 1.09938,0.76169 1.09938,-5.61199 1.09938,2.15412 1.09939,7.37806 1.09938,-15.40707 1.09939,10.8015 1.09938,-24.72323 1.09938,-1.65171 1.09938,1.6698 1.09939,19.00416 1.09938,3.48517 1.09938,1.12942 1.09939,-12.53298 1.09938,11.55525 1.09938,-1.87107 1.09939,13.76777 1.09938,2.79689 1.09938,-0.35394 1.09939,1.84839 1.09938,-15.92317 1.09938,-15.84434 1.09938,12.94579 1.09939,-46.19537 1.09938,10.08543 1.09939,13.50644 1.09938,-15.03774 1.09938,9.01848 1.09938,2.83216 1.09939,26.59965 1.09938,-6.73855 1.09938,-2.65987 1.09939,-8.86838 1.09938,0.74408 1.09938,3.96845 1.09939,16.59412 1.09938,-11.74455 1.09938,-4.85852 1.09939,-7.59658 1.09938,17.27291 1.09938,-17.18684 1.09938,-1.80457 1.09939,-10.85784 1.09938,0.15936 1.09938,-15.7187 1.09939,13.12268 1.09938,6.82606 1.09938,2.49004 1.09939,-25.17022 1.09938,23.93239 1.09938,12.08358 1.09939,23.13235 1.09938,-9.4328 1.09938,12.43455 1.09939,9.66497 1.09938,16.90477 1.09938,-22.71488 1.09939,3.30678 1.09938,-8.36978 1.09938,-4.91563 1.09938,-2.32973 1.09939,-7.51984 1.09938,-6.49689 1.09938,-18.95294 1.09939,14.38567 1.09938,-18.99195 1.09938,3.86812 1.09939,-5.32358 1.09938,8.35187 1.09938,-2.56557 1.09939,-12.36406 1.09938,-2.40852 1.09938,-3.84307 1.09939,-0.93827 1.09938,-2.66369 1.09938,6.16488 1.09939,17.06421 1.09938,2.09754 1.09938,13.856 1.09938,-1.15938 1.09939,1.39565 1.09938,-18.04095 1.09938,10.02689 1.09939,-4.38131 1.09938,7.37137 1.09938,-0.70975 1.09939,-13.27272 1.09938,6.53001 1.09938,-7.9711 1.09939,5.30108 1.09938,3.43959 1.09938,23.54157 1.09939,2.76238 1.09938,-2.5145 1.09938,-4.92552 1.09939,4.44956 1.09938,-1.25094 1.09938,2.51311 1.09938,-2.31621 1.09939,1.49282 1.09938,12.60175 1.09938,6.25809 1.09939,-2.46159 1.09938,8.36335 1.09938,4.25954 1.09939,-1.91294 1.09938,-7.46938 1.09938,-6.41946 1.09939,18.22155 1.09938,-29.2426 1.09938,-18.16625 1.09939,1.9607 1.09938,23.87157 1.09938,-2.42755 1.09939,10.85363 1.09938,-5.50423 1.09938,0.1401 1.09939,-11.13773 1.09938,-3.28126 1.09938,0.41429 1.09938,-4.01815 1.09939,-2.76422 1.09938,5.05102 1.09938,-16.3609 1.09939,-10.3883 1.09938,12.30178 1.09938,2.88047 1.09939,-4.97578 1.09938,-7.03417 1.09938,-6.91987 1.09939,6.03143 1.09938,-6.75785 1.09938,-9.71064 1.09938,12.57982 1.09939,11.55336 1.09938,6.90091 1.09939,11.50221 1.09938,-8.63813 1.09938,11.76625 1.09938,-7.29115 1.09939,-8.73649 1.09938,4.42617 1.09938,9.89619 1.09939,-9.75041 1.09938,-4.72549 1.09938,-17.19886 1.09939,19.90989 1.09938,3.85068 1.09938,-30.4039 1.09939,14.7742 1.09938,13.41458 1.09938,-2.31803 1.09938,-12.07674 1.09939,0.48117 1.09938,-10.07365 1.09939,15.45009 1.09938,-16.9357 1.09938,4.7324 1.09938,7.8842 1.09939,-0.89172 1.09938,-10.71011 1.09938,2.636 1.09939,6.95535 1.09938,0.83938 1.09938,11.87277 1.09939,-21.40339 1.09938,7.46405 1.09938,2.38586 1.09939,-5.80086 1.09938,-0.6497 1.09938,7.79373 1.09938,3.6116 1.09939,-8.69973 1.09938,-20.2773 1.09939,11.35426 1.09938,-6.84208 1.09938,-3.85313 1.09938,-11.61469 1.09939,1.41649 1.09938,22.27121 1.09938,-7.97235 1.09939,-12.14943 1.09938,5.31012 1.09938,-16.92911 1.09939,2.11936 1.09938,6.30797 1.09938,13.74879 1.09939,-6.17965 1.09938,-9.45443 1.09938,0.3227 1.09938,8.41225 1.09939,-7.81319 1.09938,9.68796 1.09938,-3.68013 1.09939,-9.05647 1.09938,0.14164 1.09938,8.4024 1.09939,2.10931 1.09938,13.06623 1.09938,1.26204 1.09939,-17.34714 1.09938,-0.71963 1.09938,-6.97385 1.09939,-1.52003 1.09938,3.82162 1.09938,-1.50851 1.09939,5.796 1.09938,6.75925 1.09938,1.24913 1.09938,-4.25621 1.09939,-8.54534 1.09938,-11.8436 1.09938,-10.73005 1.09939,4.17479 1.09938,13.80782 1.09938,-7.39536 1.09939,-1.09099 1.09938,-4.23745 1.09938,9.7346 1.09939,-15.30127 1.09938,-7.13938 1.09938,8.28141 1.09939,0.5154 1.09938,-10.49741 1.09938,1.61815 1.09939,17.34316 1.09938,16.16645 1.09938,-14.43744 1.09938,28.09035 1.09939,-24.23123 1.09938,-1.55621 1.09938,12.43628 1.09939,-9.13369 1.09938,-12.63585 1.09938,-5.18253 1.09939,-8.09973 1.09938,-30.89017 1.09938,10.03666 1.09939,-1.16359 1.09938,35.7816 1.09938,12.92921 1.09939,-4.23813 1.09938,6.89757 1.09938,18.23933 1.09939,-5.59459 1.09938,-4.18446 1.09938,8.37311 1.09938,-19.20478 1.09939,5.364 1.09938,7.87524 1.09938,-14.54948 1.09939,-6.43782 1.09938,-14.16855 1.09938,2.89324 1.09939,-3.02612 1.09938,-9.48365 1.09938,-15.83239 1.09939,3.84978 1.09938,5.44523 1.09938,10.49311 1.09939,-6.91861 1.09938,-0.41738 1.09938,13.53888 1.09939,7.37999 1.09938,-10.29152 1.09938,9.40396 1.09938,-3.71017 1.09939,4.98733 1.09938,6.97918 1.09938,-4.75668 1.09939,-10.47808 1.09938,-6.00319 1.09938,-18.54272 1.09939,-4.54969 1.09938,7.80476 1.09938,12.46465 1.09939,9.74366 1.09938,-2.45079 1.09938,-0.46931 1.09939,13.09617 1.09938,-6.9623 1.09938,-0.0507 1.09939,11.35251 1.09938,7.43965 1.09938,-15.22031 1.09939,-2.84723 1.09938,-1.56882 1.09938,8.36185 1.09938,-27.07412 1.09939,27.04257 1.09938,-9.65873 1.09938,7.13021 1.09939,6.83061 1.09938,2.24643 1.09938,11.70666 1.09939,-9.63913 1.09938,-20.10246 1.09938,-20.98472 1.09938,9.09096 1.09939,15.92499 1.09938,4.29713 1.09938,-8.12436 1.09939,-0.43101 1.09938,-5.25121 1.09938,-12.31603 1.09939,11.17802 1.09938,7.74574 1.09938,-6.70592 1.09939,7.45444 1.09938,7.41302 1.09938,-6.65044 1.09939,-5.88548 1.09938,13.3824 1.09938,8.06374 1.09939,5.12113 1.09938,-12.09902 1.09938,6.13387 1.09938,21.50103 1.09939,-5.34231 1.09938,-5.36785 1.09938,6.03241 1.09939,-10.52146 1.09938,-0.72587 1.09938,5.59283 1.09939,-13.32515 1.09938,-14.15434 1.09938,4.98202 1.09939,12.21292 1.09938,9.58969 1.09938,-21.10037 1.09939,26.76359 1.09938,-21.44732 1.09938,24.44592 1.09939,-8.17006 1.09938,-4.95548 1.09938,-10.89862 1.09938,13.37595 1.09939,2.65832 1.09938,14.29937 1.09938,-3.0016 1.09939,6.45467 1.09938,-5.46775 1.09938,-0.70707 1.09939,10.62429 1.09938,18.91909 1.09938,-4.20303 1.09939,-5.7648 1.09938,-6.43923 1.09938,-7.03284 1.09939,-4.78613 1.09938,-17.32384 1.09938,-13.82513 1.09939,13.86204 1.09938,2.30612 1.09938,-3.1944 1.09939,-6.17866 1.09938,-11.34593 1.09938,12.49124 1.09938,7.02443 1.09939,14.32956 1.09938,2.00887 1.09938,-6.27444 1.09939,2.75493 1.09938,-0.10586 1.09938,3.96126 1.09939,-21.11062 1.09938,0.34496 1.09938,-14.66787 1.09939,6.66615 1.09938,1.94906 1.09938,5.49554 1.09939,10.65267 1.09938,25.12001 1.09938,-9.2344 1.09939,-25.03041 1.09938,13.93898 1.09938,1.00228 1.09938,-7.13182 1.09939,9.4377 1.09938,5.04292 1.09938,0.0637 1.09939,4.32623 1.09938,-1.35392 1.09938,-0.78269 1.09939,4.98559 1.09938,-1.97784 1.09938,-4.51234 1.09939,13.67817 1.09938,13.42806 1.09938,3.33959 1.09936,-12.02127 1.0994,13.05493 1.0994,-1.94919 1.0994,-7.9914 1.0994,3.24206 1.0993,17.87609 1.0994,-26.87492 1.0994,-0.43583 1.0994,-11.72995 1.0994,14.83211 1.0994,-5.75297 1.0993,-9.87416 1.0994,-6.1536 1.0994,5.28211 1.0994,-16.78548 1.0994,-10.17419 1.0994,7.12825 1.0993,2.1712 1.0994,-1.34504 1.0994,-4.0442 1.0994,2.86284 1.0994,6.77984 1.0994,12.96837 1.0993,1.96839 1.0994,8.76904 1.0994,-6.41486 1.0994,3.3086 1.0994,16.42374 1.0994,8.92037 1.0993,-4.85455 1.0994,-0.79606 1.0994,-6.3853 1.0994,-21.93661 1.0994,-4.55454 1.0994,-0.24723 1.0993,2.9439 1.0994,2.45486 1.0994,3.06111 1.0994,4.27069 1.0994,3.20772 1.0994,2.55456 1.0993,-12.5786 1.0994,-6.68418 1.0994,-4.52154 1.0994,-10.98359 1.0994,-6.01467 1.0994,9.73623 1.0993,19.26147 1.0994,14.64727 1.0994,2.48223 1.0994,14.89801 1.0994,14.5763 1.0994,-16.01582 1.0993,-6.46678 1.0994,-5.30147 1.0994,-3.08384 1.0994,0.67439 1.0994,-5.95721 1.0993,9.18501 1.0994,-0.75106 1.0994,-2.3003 1.0994,4.2288 1.0994,9.95686 1.0994,-0.78662 1.0993,-2.48951 1.0994,5.47755 1.0994,6.14199 1.0994,3.76042 1.0994,-5.7856 1.0994,-6.80798 1.0993,-12.9756 1.0994,-4.47749 1.0994,-7.25863 1.0994,8.39964 1.0994,-9.10076 1.0994,-4.45461 1.0993,4.43222 1.0994,15.4646 1.0994,-2.4131 1.0994,-17.27821 1.0994,-1.98868 1.0994,8.20274 1.0993,24.36267 1.0994,4.587 v -69.15384 0 l -1.0994,-3.47728 -1.0993,-22.60465 -1.0994,-15.78353 -1.0994,3.76398 -1.0994,17.63286 -1.0994,-9.71571 -1.0994,-6.76874 -1.0993,4.63067 -1.0994,1.60858 -1.0994,19.15755 -1.0994,-15.18543 -1.0994,8.03266 -1.0994,2.88884 -1.0993,10.26941 -1.0994,4.56773 -1.0994,4.07438 -1.0994,6.2676 -1.0994,1.05673 -1.0994,-14.15267 -1.0993,1.19069 -1.0994,0.58299 -1.0994,-8.89551 -1.0994,-9.77034 -1.0994,7.56794 -1.0994,-1.36808 -1.0993,-4.59373 -1.0994,6.28179 -1.0994,0.65159 -1.0994,3.88509 -1.0994,3.1865 -1.0993,-0.76195 -1.0994,19.96156 -1.0994,-15.55321 -1.0994,-14.11199 -1.0994,0.22905 -1.0994,-17.38354 -1.0993,-19.38714 -1.0994,-6.49624 -1.0994,4.66061 -1.0994,14.78796 -1.0994,1.97681 -1.0994,13.45528 -1.0993,5.51305 -1.0994,2.69435 -1.0994,-13.24751 -1.0994,-3.72987 -1.0994,5.59977 -1.0994,-2.10787 -1.0993,-5.32454 -1.0994,0.52806 -1.0994,2.50601 -1.0994,24.04915 -1.0994,2.5515 -1.0994,-1.4962 -1.0993,4.61147 -1.0994,-11.03192 -1.0994,-18.496 -1.0994,1.23305 -1.0994,1.96143 -1.0994,-10.68273 -1.0993,2.43518 -1.0994,-7.89215 -1.0994,-12.61946 -1.0994,8.79163 -1.0994,7.60472 -1.0994,-3.39577 -1.0993,-6.00289 -1.0994,-9.78661 -1.0994,0.73687 -1.0994,17.36918 -1.0994,-1.67064 -1.0994,9.22196 -1.0993,12.33725 -1.0994,4.49029 -1.0994,-14.22954 -1.0994,7.70378 -1.0994,10.12357 -1.0994,20.90731 -1.0993,-24.12586 -1.0994,2.38418 -1.0994,9.84009 -1.0994,-6.7721 -1.0994,-4.21243 -1.09936,9.96575 -1.09938,-0.56955 -1.09938,-17.50737 -1.09939,-17.67935 -1.09938,5.99488 -1.09938,8.75386 -1.09939,-7.54429 -1.09938,5.60418 -1.09938,-3.81729 -1.09939,0.0723 -1.09938,-6.59607 -1.09938,-3.45239 -1.09939,-3.26787 -1.09938,-3.59507 -1.09938,-6.95096 -1.09938,-10.63607 -1.09939,23.84881 -1.09938,13.94901 -1.09938,-22.08582 -1.09939,-12.98127 -1.09938,-1.0051 -1.09938,0.34178 -1.09939,-6.75238 -1.09938,8.33983 -1.09938,1.17018 -1.09939,23.09803 -1.09938,-0.83516 -1.09938,-4.72204 -1.09939,-3.61996 -1.09938,2.56441 -1.09938,-3.35562 -1.09939,-19.01771 -1.09938,-0.93879 -1.09938,-2.39221 -1.09938,5.92917 -1.09939,10.7298 -1.09938,-1.94302 -1.09938,-6.91519 -1.09939,-7.52198 -1.09938,11.002 -1.09938,13.00561 -1.09939,0.5166 -1.09938,10.91023 -1.09938,4.01128 -1.09939,9.73016 -1.09938,-2.88851 -1.09938,-15.5381 -1.09939,-9.05832 -1.09938,7.96949 -1.09938,2.87926 -1.09939,-13.40892 -1.09938,-1.83847 -1.09938,-16.52138 -1.09939,6.47757 -1.09938,-12.09389 -1.09938,-0.74421 -1.09938,18.04588 -1.09939,3.96163 -1.09938,-23.10723 -1.09938,19.06728 -1.09939,-28.57333 -1.09938,23.94432 -1.09938,-10.80266 -1.09939,-9.54503 -1.09938,-3.80079 -1.09938,13.9365 -1.09939,6.05158 -1.09938,-2.62295 -1.09938,-1.0617 -1.09939,14.14181 -1.09938,-5.49724 -1.09938,1.40766 -1.09939,12.82332 -1.09938,-21.1113 -1.09938,-3.73995 -1.09938,7.2013 -1.09939,-7.73019 -1.09938,-7.81094 -1.09938,-11.67804 -1.09939,7.39668 -1.09938,2.71357 -1.09938,-4.17009 -1.09939,-12.49311 -1.09938,10.00184 -1.09938,-7.08393 -1.09939,-4.28071 -1.09938,14.58001 -1.09938,7.14824 -1.09939,-1.19819 -1.09938,6.16365 -1.09938,-4.91172 -1.09939,-12.84736 -1.09938,-13.79648 -1.09938,17.85649 -1.09938,20.05955 -1.09939,8.95929 -1.09938,-8.00339 -1.09938,-0.7143 -1.09939,-7.50161 -1.09938,-7.71765 -1.09938,8.26215 -1.09939,-20.13092 -1.09938,18.80366 -1.09938,-5.85923 -1.09938,-0.57646 -1.09939,10.10933 -1.09938,6.60438 -1.09938,-3.33526 -1.09939,-0.77463 -1.09938,-3.17425 -1.09938,0.76927 -1.09939,-12.22475 -1.09938,-1.95334 -1.09938,-1.29887 -1.09939,-19.19136 -1.09938,-14.53794 -1.09938,1.64523 -1.09939,11.04265 -1.09938,15.50516 -1.09938,1.86723 -1.09939,8.18106 -1.09938,6.7019 -1.09938,-4.59661 -1.09939,2.10411 -1.09938,0.44426 -1.09938,-4.57912 -1.09938,11.46378 -1.09939,-1.24556 -1.09938,-13.68866 -1.09938,-6.78597 -1.09939,7.74244 -1.09938,-3.83576 -1.09938,-3.84011 -1.09939,-7.14676 -1.09938,5.1644 -1.09938,10.37318 -1.09939,3.5754 -1.09938,-1.94491 -1.09938,16.21991 -1.09939,4.44019 -1.09938,15.9007 -1.09938,-8.6036 -1.09939,-3.05752 -1.09938,13.76006 -1.09938,-10.26481 -1.09938,2.68554 -1.09939,5.5702 -1.09938,-15.34193 -1.09938,-9.23346 -1.09939,8.93011 -1.09938,-10.9132 -1.09938,-35.58321 -1.09939,-2.56095 -1.09938,-13.6587 -1.09938,37.16024 -1.09939,1.55668 -1.09938,4.16619 -1.09938,12.62362 -1.09939,19.14818 -1.09938,-18.93212 -1.09938,8.26249 -1.09939,22.32666 -1.09938,-26.06302 -1.09938,13.34353 -1.09938,-13.46042 -1.09939,-23.75969 -1.09938,0.13345 -1.09938,6.30093 -1.09939,0.45858 -1.09938,-6.77764 -1.09938,5.80366 -1.09939,17.59202 -1.09938,-14.73293 -1.09938,-3.87585 -1.09939,4.27516 -1.09938,12.10544 -1.09938,-13.80747 -1.09939,-3.24975 -1.09938,9.21922 -1.09938,6.0313 -1.09939,16.98049 -1.09938,12.51421 -1.09938,-0.42318 -1.09938,-11.53151 -1.09939,-1.42147 -1.09938,2.0507 -1.09938,2.70258 -1.09939,-5.46308 -1.09938,9.37483 -1.09938,-4.55095 -1.09939,16.52029 -1.09938,1.36081 -1.09938,-18.05969 -1.09939,2.69161 -1.09938,-8.46119 -1.09938,-3.82282 -1.09939,14.17153 -1.09938,11.50163 -1.09938,-13.01529 -1.09939,3.68048 -1.09938,-11.62307 -1.09938,4.16807 -1.09938,8.84511 -1.09939,3.83845 -1.09938,-14.19831 -1.09938,-8.34996 -1.09939,5.57785 -1.09938,21.97057 -1.09938,-7.27472 -1.09939,12.45341 -1.09938,1.4643 -1.09938,-26.89259 -1.09939,1.40739 -1.09938,13.12988 -1.09938,9.00937 -1.09938,2.65145 -1.09939,-5.65826 -1.09938,18.41832 -1.09939,1.00585 -1.09938,1.8142 -1.09938,-12.04414 -1.09938,1.58374 -1.09939,3.37104 -1.09938,2.62208 -1.09938,-5.58294 -1.09939,19.565 -1.09938,-9.18425 -1.09938,-0.94288 -1.09939,-4.48039 -1.09938,-3.09624 -1.09938,3.10776 -1.09939,4.16695 -1.09938,-1.19547 -1.09938,-14.88611 -1.09938,18.26534 -1.09939,-15.88557 -1.09938,8.4746 -1.09939,1.52323 -1.09938,10.39951 -1.09938,-2.42972 -1.09938,-7.5229 -1.09939,-12.99279 -1.09938,28.50427 -1.09938,-5.57296 -1.09939,-19.77428 -1.09938,15.25792 -1.09938,11.83555 -1.09939,8.7327 -1.09938,-17.00395 -1.09938,1.76812 -1.09939,6.39178 -1.09938,3.94465 -1.09938,-3.04394 -1.09938,-1.63769 -1.09939,-9.1763 -1.09938,-5.97096 -1.09939,-14.51125 -1.09938,-9.18293 -1.09938,9.16044 -1.09938,12.6728 -1.09939,-16.57105 -1.09938,8.54684 -1.09938,13.21971 -1.09939,-0.38055 -1.09938,-3.77381 -1.09938,-10.35531 -1.09939,11.68011 -1.09938,23.00483 -1.09938,-6.25938 -1.09939,-6.22031 -1.09938,7.44897 -1.09938,0.4718 -1.09938,0.21908 -1.09939,13.18793 -1.09938,5.74926 -1.09938,1.90073 -1.09939,-8.18432 -1.09938,3.22584 -1.09938,-24.93559 -1.09939,-0.76737 -1.09938,11.43239 -1.09938,25.71366 -1.09939,-12.24745 -1.09938,5.93858 -1.09938,2.79613 -1.09939,0.81744 -1.09938,-3.19388 -1.09938,-7.78888 -1.09939,9.34467 -1.09938,-12.3273 -1.09938,-4.79981 -1.09939,2.13663 -1.09938,-1.08504 -1.09938,-8.96165 -1.09938,7.35876 -1.09939,-10.53083 -1.09938,8.37355 -1.09938,3.28621 -1.09939,-6.32489 -1.09938,-19.39422 -1.09938,-6.80897 -1.09939,-3.07128 -1.09938,12.77334 -1.09938,-14.49003 -1.09939,12.07379 -1.09938,-3.63233 -1.09938,-2.09515 -1.09939,3.74542 -1.09938,-12.50914 -1.09938,9.75012 -1.09939,-0.10046 -1.09938,6.06251 -1.09938,-13.80465 -1.09938,-1.31049 -1.09939,-8.82168 -1.09938,-12.73385 -1.09938,6.35019 -1.09939,6.47661 -1.09938,-3.45761 -1.09938,8.29247 -1.09939,10.36637 -1.09938,0.49963 -1.09938,-1.45646 -1.09939,2.73548 -1.09938,-1.64988 -1.09938,17.80451 -1.09939,-12.8103 -1.09938,13.92654 -1.09938,6.74111 -1.09939,7.10127 -1.09938,9.34145 -1.09938,2.71262 -1.09938,10.37478 -1.09939,-1.95671 -1.09938,17.412 -1.09938,-18.49976 -1.09939,-13.68357 -1.09938,-8.49489 -1.09938,10.58223 -1.09939,-19.40418 -1.09938,-19.24635 -1.09938,-25.75031 -1.09939,24.40086 -1.09938,-0.93122 -1.09938,-2.90873 -1.09939,-19.96052 -1.09938,15.03325 -1.09938,0.25309 -1.09939,15.84959 -1.09938,4.39926 -1.09938,14.42435 -1.09938,-17.29012 -1.09939,1.84101 -1.09938,6.66191 -1.09938,15.04279 -1.09939,-10.29892 -1.09938,-10.88472 -1.09938,1.49996 -1.09939,5.338 -1.09938,0.7601 -1.09938,18.36249 -1.09939,-30.62448 -1.09938,-0.90728 -1.09938,-10.53073 -1.09938,12.95902 -1.09939,-14.22093 -1.09938,-8.10943 -1.09939,45.52855 -1.09938,-17.11278 -1.09938,16.54422 -1.09938,17.32182 -1.09939,-2.09157 -1.09938,6.18809 -1.09938,4.18094 -1.09939,-20.00157 -1.09938,4.07438 -1.09938,-14.68474 -1.09939,3.31611 -1.09938,-0.30643 -1.09938,-5.15866 -1.09939,-17.65583 -1.09938,0.71761 -1.09938,-1.27533 -1.09938,29.23766 -1.09939,-6.12207 -1.09938,13.04759 -1.09939,-7.74423 -1.09938,-0.44963 -1.09938,15.30238 -1.09938,-2.75084 -1.09939,2.55804 -1.09938,-6.58886 -1.09938,2.06338 -1.09939,-15.59145 -1.09938,4.54486 -1.09938,8.09799 -1.09939,11.9271 -1.09938,4.6072 -1.09938,-1.91169 -1.09939,0.66337 -1.09938,8.65991 -1.09938,-21.08675 -1.09938,-15.26838 -1.09939,-11.19397 -1.09938,1.66617 -1.09939,-2.95361 -1.09938,-2.00213 -1.09938,9.20288 -1.09938,2.99411 -1.09939,-11.68951 -1.09938,20.38066 -1.09938,-7.31578 -1.09939,3.69038 -1.09938,14.97906 -1.09938,-2.55337 -1.09939,3.39533 -1.09938,-10.0356 -1.09938,2.68984 -1.09939,9.97018 -1.09938,-3.70323 -1.09938,-7.7557 -1.09938,-7.35393 -1.09939,-0.98483 -1.09938,12.62494 -1.09938,14.04825 -1.09939,-16.11533 -1.09938,3.15218 -1.09938,-17.03747 -1.09939,4.51418 -1.09938,6.54694 -1.09938,-3.40821 -1.09939,0.58399 -1.09938,-16.66308 -1.09938,11.98866 -1.09939,-0.60283 -1.09938,3.93363 -1.09938,0.85996 -1.09939,-13.03704 -1.09938,6.17739 -1.09938,-2.57113 -1.09938,4.46163 -1.09939,15.94772 -1.09938,2.42521 -1.09938,-1.54111 -1.09939,0.65726 -1.09938,-10.15245 -1.09938,-1.81814 -1.09939,2.28167 -1.09938,-11.0422 -1.09938,1.41398 -1.09939,-10.23042 -1.09938,7.06129 -1.09938,-9.09198 -1.09939,10.09947 -1.09938,3.43402 -1.09938,-6.53636 -1.09939,-3.35966 -1.09938,2.63864 -1.09938,6.5732 -1.09939,-21.21325 -1.09938,13.01864 -1.09938,11.70728 -1.09938,-8.50646 -1.09939,9.18304 -1.09938,-7.71974 -1.09938,12.61773 -1.09939,-4.7927 -1.09938,3.16932 -1.09938,-9.21492 -1.09939,1.07955 -1.09938,-2.70961 -1.09938,-9.73968 -1.09939,-15.64223 -1.09938,-2.01472 -1.09938,4.13698 -1.09938,11.09656 -1.09939,-15.92665 -1.09938,-0.76071 -1.09939,3.5073 -1.09938,9.73705 -1.09938,-5.64912 -1.09938,9.20637 -1.09939,-10.70225 -1.09938,5.41637 -1.09938,30.07954 -1.09939,-9.93418 -1.09938,7.22108 -1.09938,-17.33209 -1.09939,-1.97525 -1.09938,7.15582 -1.09938,4.70122 -1.09939,-5.88072 -1.09938,-8.75828 -1.09938,5.45156 -1.09939,10.47434 -1.09938,2.74484 -1.09938,-5.36882 -1.09939,-0.42958 -1.09938,1.59081 -1.09938,5.48104 -1.09938,-18.60241 -1.09939,-15.86431 -1.09938,0.23824 -1.09938,13.45326 -1.09939,-6.22151 -1.09938,1.60238 -1.09938,-8.6114 -1.09939,-2.94841 -1.09938,12.13509 -1.09938,9.23657 -1.09939,-7.0025 -1.09938,0.84961 -1.09938,-2.04685 -1.09939,8.34324 -1.09938,6.56304 -1.09938,1.61274 -1.09939,16.76445 -1.09938,5.75334 -1.09938,-1.30686 -1.09938,1.71482 -1.09939,1.08268 -1.09938,-3.15562 -1.09938,-10.57045 -1.09939,-5.13252 -1.09938,11.90998 -1.09938,-19.39907 -1.09939,-3.11043 -1.09938,-3.45651 -1.09938,5.40208 -1.09939,-0.81003 -1.09938,-29.43011 -1.09938,-3.51074 -1.09939,3.24472 -1.09938,20.17583 -1.09938,-11.19914 -1.09938,-10.35971 -1.09939,-13.15529 -1.09938,9.49419 -1.09938,14.1026 -1.09939,-7.78121 -1.09938,10.23547 -1.09938,-8.16386 -1.09939,18.09697 -1.09938,1.66024 -1.09938,-5.26327 -1.09939,-0.26917 -1.09938,17.52061 -1.09938,-3.8396 -1.09939,6.75239 -1.09938,-16.51031 -1.09938,-2.14967 -1.09939,-13.98738 -1.09938,13.83714 -1.09938,-2.27023 -1.09938,-7.81118 -1.09939,2.26051 -1.09938,-1.18485 -1.09938,-8.54563 -1.09939,-26.7846 -1.09938,13.8052 -1.09938,21.86038 -1.09939,-4.46448 -1.09938,1.73843 -1.09938,-3.65304 -1.09939,-16.49199 -1.09938,-9.04621 -1.09938,-33.73532 -1.09939,-3.6697 -1.09938,2.2986 -1.09938,-16.45002 -1.09939,17.31146 -1.09938,-1.01662 -1.09938,27.85624 -1.09938,5.40247 -1.09939,-15.37002 -1.09938,16.98993 -1.09938,-0.47929 -1.09939,-2.00611 -1.09938,-8.08135 -1.09938,26.0298 -1.09939,-13.97133 -1.09938,10.60217 -1.09938,5.93705 -1.09939,-1.83868 -1.09938,-21.92704 -1.09938,0.53022 -1.09939,1.51954 -1.09938,-0.57123 -1.09938,1.89576 -1.09938,-23.2793 -1.09939,12.31474 -1.09938,-1.76911 -1.09938,-0.59315 -1.09939,-11.50779 -1.09938,12.25884 -1.09938,0.89322 -1.09939,-20.81762 -1.09938,6.08071 -1.09938,2.42497 -1.09939,-11.19543 -1.09938,-21.2156 -1.09938,8.59981 -1.09939,10.78628 -1.09938,-16.85057 -1.09938,7.22301 -1.09939,5.13744 -1.09938,0.83164 -1.09938,-6.85342 -1.09938,9.41846 -1.09939,-2.21896 -1.09938,4.60847 -1.09938,3.50629 -1.09939,-25.76146 -1.09938,1.4089 -1.09938,-15.81618 -1.09939,-1.89029 -1.09938,-9.78658 -1.09938,16.29763 -1.09939,13.7278 -1.09938,6.45968 -1.09938,-0.59123 -1.09939,-9.81579 -1.09938,-3.09958 -1.09938,5.29188 -1.09938,16.31323 -1.09939,10.60326 -1.09938,-16.75039 -1.09939,2.46087 -1.09938,1.8904 -1.09938,-5.51369 -1.09938,-11.3325 -1.09939,-12.46065 -1.09938,8.7481 -1.09938,-0.0112 -1.09939,11.13061 -1.09938,-8.37932 -1.09938,20.4892 -1.09939,-37.04734 -1.09938,-3.79453 -1.09938,1.75553 -1.09939,-10.99674 -1.09938,7.70509 -1.09938,-21.67397 -1.09938,10.96606 -1.09939,-7.38243 -1.09938,3.6868 -1.09938,34.67484 -1.09939,-4.57588 -1.09938,-14.12164 -1.09938,2.17728 -1.09939,0.01 -1.09938,-8.27884 -1.09938,7.07261 -1.09939,-10.27812 -1.09938,-6.07011 -1.09938,3.30138 -1.09939,0.76193 -1.09938,5.75647 -1.09938,0.2882 -1.09939,3.72443 -1.09938,-7.1709 -1.09938,-3.55836 -1.09939,1.72345 -1.09938,2.22808 -1.09938,-2.94438 -1.09938,-1.15797 -1.09939,0.59791 -1.09938,-5.71024 -1.09938,-9.90362 -1.09939,21.7189 -1.09938,-1.33501 -1.09938,1.90369 -1.09939,4.56433 -1.09938,-8.01286 -1.09938,-4.20226 -1.09939,3.36254 -1.09938,-9.14404 -1.09938,10.33237 -1.09939,-0.79745 -1.09938,10.84905 -1.09938,-6.85868 -1.09939,10.1403 -1.09938,-4.51692 -1.09938,-10.62094 -1.09938,0.89106 -1.09939,-8.51809 -1.09938,23.89011 -1.09938,-0.98763 -1.09939,-3.43299 -1.09938,-4.74863 -1.09938,-24.36814 -1.09939,10.99454 -1.09938,-7.9273 -1.09938,1.0998 -1.09939,-14.47434 -1.09938,-14.85195 -1.09938,13.26277 -1.09938,-6.06165 -1.09939,7.26608 -1.09938,-20.82543 -1.09939,-10.85569 -1.09938,19.58208 -1.09938,1.51221 -1.09938,8.40864 -1.09939,1.70747 -1.09938,15.54696 -1.09938,2.39125 -1.09939,-22.31388 -1.09938,-2.63936 -1.09938,13.69593 -1.09939,-1.30956 -1.09938,4.55415 -1.09938,-6.14814 -1.09939,-18.90208 -1.09938,8.0795 -1.09938,-7.89257 -1.09939,8.78771 -1.09938,-15.69203 -1.09938,-5.73069 -1.09939,21.11763 -1.09938,-4.4648 -1.09938,12.84145 -1.09938,-11.37864 -1.09939,3.05024 -1.09938,6.36713 -1.09938,12.99097 -1.09939,-5.95039 -1.09938,-6.06777 -1.09938,2.39954 -1.09939,-4.35981 -1.09938,-8.13767 -1.09938,9.91858 -1.09939,4.58652 -1.09938,30.92998 -1.09938,4.12017 -1.09939,-5.82046 -1.09938,-6.93126 -1.09938,22.24357 -1.09938,0.29529 -1.09939,0.94941 -1.09938,-17.46522 -1.09938,1.01737 -1.09939,9.45767 -1.09938,-0.68629 -1.09938,1.7974 -1.09939,-0.59375 -1.09938,10.27068 -1.09938,-2.82498 -1.09939,-16.11575 -1.09938,9.88994 -1.09938,13.65953 -1.09939,-15.18417 -1.09938,-6.20733 -1.09938,13.00904 -1.09939,-13.65017 -1.09938,14.33222 -1.09938,-3.22791 -1.09938,11.07497 -1.09939,-18.20055 -1.09938,-14.80053 -1.09938,18.71783 -1.09939,-0.36382 -1.09938,-2.44107 -1.09938,-6.44061 -1.09939,0.64884 -1.09938,2.2291 -1.09938,9.68948 -1.09939,-10.27401 -1.09938,-3.37469 -1.09938,1.72941 -1.09939,24.09315 -1.09938,-15.35066 -1.09938,19.45187 -1.09939,2.70245 -1.09938,12.58765 -1.09938,-8.81413 -1.09938,-4.1908 -1.09939,6.65291 -1.09938,-2.92367 -1.09938,6.87182 -1.09939,7.21349 -1.09938,24.73931 -1.09938,5.54399 -1.09939,2.19931 -1.09938,-9.37085 -1.09938,4.953 -1.09939,7.72279 -1.09938,14.16053 -1.09938,15.16817 -1.09939,-1.94939 -1.09938,15.83538 -1.09938,4.10159 -1.09939,12.00434 -1.09938,-3.4501 -1.09938,7.95101 -1.09938,18.2929 -1.09939,15.41776 -1.09938,12.14343 -1.09938,-9.92096 -1.09939,-7.48029 -1.09938,17.42296 -1.09938,4.99957 -1.09939,1.91693 -1.09938,-10.72131 -1.09938,-4.46153 z"
             style="stroke:#1f77b4;stroke-opacity:0.2" />
        </defs>
        <g
           clip-path="url(#p18f436c5b3)"
           id="g19">
          <use
             xlink:href="#m5fbfe7d3c4"
             x="0"
             y="648"
             style="fill:#1f77b4;fill-opacity:0.2;stroke:#1f77b4;stroke-opacity:0.2"
             id="use17" />
        </g>
      </g>
      <g
         id="PolyCollection_2">
        <path
           d="m 114.4311,-2482.8133 v 3861.0666 h -10.99383 v -3861.0666 0 z"
           clip-path="url(#p18f436c5b3)"
           style="fill:#808080;fill-opacity:0.3;stroke:#808080;stroke-opacity:0.3"
           id="path22" />
      </g>
      <g
         id="matplotlib.axis_1">
        <g
           id="xtick_1"
           transform="matrix(1.9844961,0,0,1.9844961,-99.350823,-596.644)">
          <g
             id="line2d_1">
            <defs
               id="defs26">
              <path
                 id="m13f5c2f829"
                 d="M 0,0 V 3.5"
                 style="stroke:#000000;stroke-width:0.8" />
            </defs>
            <g
               id="g30">
              <use
                 xlink:href="#m13f5c2f829"
                 x="103.43727"
                 y="606.03998"
                 style="stroke:#000000;stroke-width:0.8"
                 id="use28" />
            </g>
          </g>
          <g
             id="text_1">
            <!-- 0 -->
            <g
               transform="matrix(0.1,0,0,-0.1,100.25602,620.63844)"
               id="g38">
              <defs
                 id="defs34">
                <path
                   id="DejaVuSans-30"
                   d="m 2034,4250 q -487,0 -733,-480 -245,-479 -245,-1442 0,-959 245,-1439 246,-480 733,-480 491,0 736,480 246,480 246,1439 0,963 -246,1442 -245,480 -736,480 z m 0,500 q 785,0 1199,-621 414,-620 414,-1801 0,-1178 -414,-1799 -414,-620 -1199,-620 -784,0 -1198,620 -414,621 -414,1799 0,1181 414,1801 414,621 1198,621 z"
                   transform="scale(0.015625)" />
              </defs>
              <use
                 xlink:href="#DejaVuSans-30"
                 id="use36" />
            </g>
          </g>
        </g>
        <g
           id="xtick_2"
           transform="matrix(1.9673491,0,0,1.9673491,-303.01048,-586.25225)">
          <g
             id="line2d_2">
            <g
               id="g44">
              <use
                 xlink:href="#m13f5c2f829"
                 x="323.3139"
                 y="606.03998"
                 style="stroke:#000000;stroke-width:0.8"
                 id="use42" />
            </g>
          </g>
          <g
             id="text_2">
            <!-- 1000 -->
            <g
               transform="matrix(0.1,0,0,-0.1,310.5889,620.63844)"
               id="g58">
              <defs
                 id="defs48">
                <path
                   id="DejaVuSans-31"
                   d="M 794,531 H 1825 V 4091 L 703,3866 v 575 l 1116,225 h 631 V 531 H 3481 V 0 H 794 Z"
                   transform="scale(0.015625)" />
              </defs>
              <use
                 xlink:href="#DejaVuSans-31"
                 id="use50" />
              <use
                 xlink:href="#DejaVuSans-30"
                 x="63.623047"
                 id="use52" />
              <use
                 xlink:href="#DejaVuSans-30"
                 x="127.24609"
                 id="use54" />
              <use
                 xlink:href="#DejaVuSans-30"
                 x="190.86914"
                 id="use56" />
            </g>
          </g>
        </g>
        <g
           id="xtick_3"
           transform="matrix(1.9673491,0,0,1.9673491,-515.35426,-586.25225)">
          <g
             id="line2d_3">
            <g
               id="g64">
              <use
                 xlink:href="#m13f5c2f829"
                 x="543.19055"
                 y="606.03998"
                 style="stroke:#000000;stroke-width:0.8"
                 id="use62" />
            </g>
          </g>
          <g
             id="text_3">
            <!-- 2000 -->
            <g
               transform="matrix(0.1,0,0,-0.1,530.46553,620.63844)"
               id="g78">
              <defs
                 id="defs68">
                <path
                   id="DejaVuSans-32"
                   d="M 1228,531 H 3431 V 0 H 469 v 531 q 359,372 979,998 621,627 780,809 303,340 423,576 121,236 121,464 0,372 -261,606 -261,235 -680,235 -297,0 -627,-103 -329,-103 -704,-313 v 638 q 381,153 712,231 332,78 607,78 725,0 1156,-363 431,-362 431,-968 0,-288 -108,-546 -107,-257 -392,-607 -78,-91 -497,-524 Q 1991,1309 1228,531 Z"
                   transform="scale(0.015625)" />
              </defs>
              <use
                 xlink:href="#DejaVuSans-32"
                 id="use70" />
              <use
                 xlink:href="#DejaVuSans-30"
                 x="63.623047"
                 id="use72" />
              <use
                 xlink:href="#DejaVuSans-30"
                 x="127.24609"
                 id="use74" />
              <use
                 xlink:href="#DejaVuSans-30"
                 x="190.86914"
                 id="use76" />
            </g>
          </g>
        </g>
        <g
           id="xtick_4"
           transform="matrix(1.9673491,0,0,1.9673491,-728.08045,-586.25225)">
          <g
             id="line2d_4">
            <g
               id="g84">
              <use
                 xlink:href="#m13f5c2f829"
                 x="763.06714"
                 y="606.03998"
                 style="stroke:#000000;stroke-width:0.8"
                 id="use82" />
            </g>
          </g>
          <g
             id="text_4">
            <!-- 3000 -->
            <g
               transform="matrix(0.1,0,0,-0.1,750.34217,620.63844)"
               id="g98">
              <defs
                 id="defs88">
                <path
                   id="DejaVuSans-33"
                   d="m 2597,2516 q 453,-97 707,-404 255,-306 255,-756 0,-690 -475,-1069 -475,-378 -1350,-378 -293,0 -604,58 -311,58 -642,174 v 609 q 262,-153 574,-231 313,-78 654,-78 593,0 904,234 311,234 311,681 0,413 -289,645 -289,233 -804,233 h -544 v 519 h 569 q 465,0 712,186 247,186 247,536 0,359 -255,551 -254,193 -729,193 -260,0 -557,-57 -297,-56 -653,-174 v 562 q 360,100 674,150 314,50 592,50 719,0 1137,-327 419,-326 419,-882 0,-388 -222,-655 -222,-267 -631,-370 z"
                   transform="scale(0.015625)" />
              </defs>
              <use
                 xlink:href="#DejaVuSans-33"
                 id="use90" />
              <use
                 xlink:href="#DejaVuSans-30"
                 x="63.623047"
                 id="use92" />
              <use
                 xlink:href="#DejaVuSans-30"
                 x="127.24609"
                 id="use94" />
              <use
                 xlink:href="#DejaVuSans-30"
                 x="190.86914"
                 id="use96" />
            </g>
          </g>
        </g>
        <g
           id="xtick_5"
           transform="matrix(1.9673491,0,0,1.9673491,-940.5134,-586.25225)">
          <g
             id="line2d_5">
            <g
               id="g104">
              <use
                 xlink:href="#m13f5c2f829"
                 x="982.94379"
                 y="606.03998"
                 style="stroke:#000000;stroke-width:0.8"
                 id="use102" />
            </g>
          </g>
          <g
             id="text_5">
            <!-- 4000 -->
            <g
               transform="matrix(0.1,0,0,-0.1,970.21879,620.63844)"
               id="g118">
              <defs
                 id="defs108">
                <path
                   id="DejaVuSans-34"
                   d="M 2419,4116 825,1625 h 1594 z m -166,550 h 794 V 1625 h 666 V 1100 H 3047 V 0 H 2419 V 1100 H 313 v 609 z"
                   transform="scale(0.015625)" />
              </defs>
              <use
                 xlink:href="#DejaVuSans-34"
                 id="use110" />
              <use
                 xlink:href="#DejaVuSans-30"
                 x="63.623047"
                 id="use112" />
              <use
                 xlink:href="#DejaVuSans-30"
                 x="127.24609"
                 id="use114" />
              <use
                 xlink:href="#DejaVuSans-30"
                 x="190.86914"
                 id="use116" />
            </g>
          </g>
        </g>
        <g
           id="text_6"
           transform="matrix(2.5837707,0,0,2.5837707,-960.13679,-976.37826)">
          <!-- time -->
          <g
             transform="matrix(0.1,0,0,-0.1,586.31391,634.31656)"
             id="g136">
            <defs
               id="defs126">
              <path
                 id="DejaVuSans-74"
                 d="M 1172,4494 V 3500 H 2356 V 3053 H 1172 V 1153 q 0,-428 117,-550 117,-122 477,-122 h 590 V 0 H 1766 Q 1100,0 847,248 594,497 594,1153 V 3053 H 172 v 447 h 422 v 994 z"
                 transform="scale(0.015625)" />
              <path
                 id="DejaVuSans-69"
                 d="m 603,3500 h 575 V 0 H 603 Z m 0,1363 h 575 V 4134 H 603 Z"
                 transform="scale(0.015625)" />
              <path
                 id="DejaVuSans-6d"
                 d="m 3328,2828 q 216,388 516,572 300,184 706,184 547,0 844,-383 297,-382 297,-1088 V 0 h -578 v 2094 q 0,503 -179,746 -178,244 -543,244 -447,0 -707,-297 -259,-296 -259,-809 V 0 h -578 v 2094 q 0,506 -178,748 -178,242 -550,242 -441,0 -701,-298 -259,-298 -259,-808 V 0 H 581 v 3500 h 578 v -544 q 197,322 472,475 275,153 653,153 382,0 649,-194 267,-193 395,-562 z"
                 transform="scale(0.015625)" />
              <path
                 id="DejaVuSans-65"
                 d="M 3597,1894 V 1613 H 953 q 38,-594 358,-905 320,-311 892,-311 331,0 642,81 311,81 618,244 V 178 Q 3153,47 2828,-22 2503,-91 2169,-91 1331,-91 842,396 353,884 353,1716 q 0,859 464,1363 464,505 1252,505 706,0 1117,-455 411,-454 411,-1235 z m -575,169 q -6,471 -264,752 -258,282 -683,282 -481,0 -770,-272 -289,-272 -333,-766 z"
                 transform="scale(0.015625)" />
            </defs>
            <use
               xlink:href="#DejaVuSans-74"
               id="use128" />
            <use
               xlink:href="#DejaVuSans-69"
               x="39.208984"
               id="use130" />
            <use
               xlink:href="#DejaVuSans-6d"
               x="66.992188"
               id="use132" />
            <use
               xlink:href="#DejaVuSans-65"
               x="164.4043"
               id="use134" />
          </g>
        </g>
      </g>
      <g
         id="matplotlib.axis_2">
        <g
           id="ytick_1"
           transform="matrix(1.9830614,0,0,1.9830614,-53.483275,-596.71321)">
          <g
             id="line2d_6">
            <defs
               id="defs141">
              <path
                 id="m2d6a3feaee"
                 d="M 0,0 H -3.5"
                 style="stroke:#000000;stroke-width:0.8" />
            </defs>
            <g
               id="g145">
              <use
                 xlink:href="#m2d6a3feaee"
                 x="54.02"
                 y="606.03998"
                 style="stroke:#000000;stroke-width:0.8"
                 id="use143" />
            </g>
          </g>
          <g
             id="text_7">
            <!-- 0.20 -->
            <g
               transform="matrix(0.1,0,0,-0.1,24.754375,609.83922)"
               id="g159">
              <defs
                 id="defs149">
                <path
                   id="DejaVuSans-2e"
                   d="m 684,794 h 660 V 0 H 684 Z"
                   transform="scale(0.015625)" />
              </defs>
              <use
                 xlink:href="#DejaVuSans-30"
                 id="use151" />
              <use
                 xlink:href="#DejaVuSans-2e"
                 x="63.623047"
                 id="use153" />
              <use
                 xlink:href="#DejaVuSans-32"
                 x="95.410156"
                 id="use155" />
              <use
                 xlink:href="#DejaVuSans-30"
                 x="159.0332"
                 id="use157" />
            </g>
          </g>
        </g>
        <g
           id="ytick_2">
          <g
             id="line2d_7">
            <g
               id="g165">
              <use
                 xlink:href="#m2d6a3feaee"
                 x="54.02"
                 y="528.81866"
                 style="stroke:#000000;stroke-width:0.8"
                 id="use163" />
            </g>
          </g>
        </g>
        <g
           id="ytick_3">
          <g
             id="line2d_8">
            <g
               id="g182">
              <use
                 xlink:href="#m2d6a3feaee"
                 x="54.02"
                 y="451.59732"
                 style="stroke:#000000;stroke-width:0.8"
                 id="use180" />
            </g>
          </g>
        </g>
        <g
           id="ytick_4">
          <g
             id="line2d_9">
            <g
               id="g199">
              <use
                 xlink:href="#m2d6a3feaee"
                 x="54.02"
                 y="374.37601"
                 style="stroke:#000000;stroke-width:0.8"
                 id="use197" />
            </g>
          </g>
        </g>
        <g
           id="ytick_5">
          <g
             id="line2d_10">
            <g
               id="g219">
              <use
                 xlink:href="#m2d6a3feaee"
                 x="54.02"
                 y="297.15466"
                 style="stroke:#000000;stroke-width:0.8"
                 id="use217" />
            </g>
          </g>
        </g>
        <g
           id="ytick_6">
          <g
             id="line2d_11">
            <g
               id="g239">
              <use
                 xlink:href="#m2d6a3feaee"
                 x="54.02"
                 y="219.93333"
                 style="stroke:#000000;stroke-width:0.8"
                 id="use237" />
            </g>
          </g>
        </g>
        <g
           id="ytick_7">
          <g
             id="line2d_12">
            <g
               id="g256">
              <use
                 xlink:href="#m2d6a3feaee"
                 x="54.02"
                 y="142.71201"
                 style="stroke:#000000;stroke-width:0.8"
                 id="use254" />
            </g>
          </g>
        </g>
        <g
           id="ytick_8"
           transform="matrix(1.9830614,0,0,1.9830614,-53.483275,-65.320049)">
          <g
             id="line2d_13">
            <g
               id="g273">
              <use
                 xlink:href="#m2d6a3feaee"
                 x="54.02"
                 y="65.490669"
                 style="stroke:#000000;stroke-width:0.8"
                 id="use271" />
            </g>
          </g>
          <g
             id="text_14">
            <!-- 0.34 -->
            <g
               transform="matrix(0.1,0,0,-0.1,24.754375,69.289885)"
               id="g284">
              <use
                 xlink:href="#DejaVuSans-30"
                 id="use276" />
              <use
                 xlink:href="#DejaVuSans-2e"
                 x="63.623047"
                 id="use278" />
              <use
                 xlink:href="#DejaVuSans-33"
                 x="95.410156"
                 id="use280" />
              <use
                 xlink:href="#DejaVuSans-34"
                 x="159.0332"
                 id="use282" />
            </g>
          </g>
        </g>
        <g
           id="text_15"
           transform="matrix(2.6042726,0,0,2.6042726,-31.475364,-498.97677)">
          <!-- accuracy -->
          <g
             transform="matrix(0,-0.1,-0.1,0,18.674688,339.01938)"
             id="g311">
            <defs
               id="defs293">
              <path
                 id="DejaVuSans-61"
                 d="m 2194,1759 q -697,0 -966,-159 -269,-159 -269,-544 0,-306 202,-486 202,-179 548,-179 479,0 768,339 289,339 289,901 v 128 z m 1147,238 V 0 H 2766 V 531 Q 2569,213 2275,61 1981,-91 1556,-91 q -537,0 -855,302 -317,302 -317,808 0,590 395,890 396,300 1180,300 h 807 v 57 q 0,397 -261,614 -261,217 -733,217 -300,0 -585,-72 -284,-72 -546,-216 v 532 q 315,122 612,182 297,61 578,61 760,0 1135,-394 375,-393 375,-1193 z"
                 transform="scale(0.015625)" />
              <path
                 id="DejaVuSans-63"
                 d="m 3122,3366 v -538 q -244,135 -489,202 -245,67 -495,67 -560,0 -870,-355 -309,-354 -309,-995 0,-641 309,-996 310,-354 870,-354 250,0 495,67 245,67 489,202 V 134 Q 2881,22 2623,-34 2366,-91 2075,-91 1284,-91 818,406 353,903 353,1747 q 0,856 470,1346 471,491 1290,491 265,0 518,-55 253,-54 491,-163 z"
                 transform="scale(0.015625)" />
              <path
                 id="DejaVuSans-75"
                 d="m 544,1381 v 2119 h 575 V 1403 q 0,-497 193,-746 194,-248 582,-248 465,0 735,297 271,297 271,810 v 1984 h 575 V 0 H 2900 V 538 Q 2691,219 2414,64 2138,-91 1772,-91 1169,-91 856,284 544,659 544,1381 Z m 1447,2203 z"
                 transform="scale(0.015625)" />
              <path
                 id="DejaVuSans-72"
                 d="m 2631,2963 q -97,56 -211,82 -114,27 -251,27 -488,0 -749,-317 -261,-317 -261,-911 V 0 H 581 v 3500 h 578 v -544 q 182,319 472,473 291,155 707,155 59,0 131,-8 72,-7 159,-23 z"
                 transform="scale(0.015625)" />
              <path
                 id="DejaVuSans-79"
                 d="m 2059,-325 q -243,-625 -475,-815 -231,-191 -618,-191 H 506 v 481 h 338 q 237,0 368,113 132,112 291,531 L 1606,56 191,3500 H 800 L 1894,763 2988,3500 h 609 z"
                 transform="scale(0.015625)" />
            </defs>
            <use
               xlink:href="#DejaVuSans-61"
               id="use295" />
            <use
               xlink:href="#DejaVuSans-63"
               x="61.279297"
               id="use297" />
            <use
               xlink:href="#DejaVuSans-63"
               x="116.25977"
               id="use299" />
            <use
               xlink:href="#DejaVuSans-75"
               x="171.24023"
               id="use301" />
            <use
               xlink:href="#DejaVuSans-72"
               x="234.61914"
               id="use303" />
            <use
               xlink:href="#DejaVuSans-61"
               x="275.73242"
               id="use305" />
            <use
               xlink:href="#DejaVuSans-63"
               x="337.01172"
               id="use307" />
            <use
               xlink:href="#DejaVuSans-79"
               x="391.99219"
               id="use309" />
          </g>
        </g>
      </g>
      <g
         id="line2d_14">
        <path
           d="m 114.4311,409.86327 1.09939,9.09525 1.09938,0.37116 1.09938,14.26237 1.09939,-1.91238 1.09938,-4.52722 1.09938,-15.65074 1.09939,2.90613 1.09938,10.28363 1.09938,-12.29242 2.19877,-32.79457 1.09938,-6.234 1.09938,-1.65713 1.09939,-8.65446 1.09938,-2.80635 1.09938,-10.61496 1.09939,1.42175 1.09938,-18.23141 1.09938,-14.4261 1.09939,-7.21437 1.09938,-5.21586 1.09938,11.61343 1.09939,-4.43472 1.09938,-2.43424 1.09938,-25.18476 1.09939,-7.00082 1.09938,-3.72545 1.09938,-2.7517 1.09939,-4.09854 1.09938,6.15851 1.09938,2.23898 1.09938,-9.44046 1.09939,-1.66549 1.09938,-15.98219 1.09938,11.97474 1.09939,-18.92368 1.09938,-3.05362 1.09938,4.53888 1.09939,7.99233 1.09938,-10.24206 1.09938,-3.57008 1.09939,-0.0223 1.09938,4.69069 1.09938,3.86689 1.09939,0.0705 1.09938,-24.09104 1.09938,14.74158 1.09939,16.41931 1.09938,-8.86491 1.09938,2.15303 1.09938,-14.81497 1.09939,16.65884 1.09938,-13.87292 1.09938,10.59706 1.09939,17.35413 1.09938,-19.09663 1.09938,-6.81028 1.09939,16.90146 1.09938,3.8129 1.09938,-7.91725 1.09939,-3.18269 1.09938,0.32228 1.09938,-0.52452 1.09939,-11.18658 1.09938,1.71136 1.09938,19.44064 1.09939,-1.76303 1.09938,-0.4633 1.09938,-22.0448 1.09938,4.59127 1.09939,3.34219 1.09938,-2.65573 1.09938,-30.11081 1.09939,-4.1405 1.09938,-9.08297 1.09938,8.42578 1.09939,6.36022 1.09938,-4.0473 1.09938,6.63874 1.09939,1.50889 1.09938,-14.6367 2.19877,-6.61175 1.09938,11.12889 1.09938,-13.41244 1.09938,2.92263 1.09939,-15.18506 1.09938,5.38235 1.09938,20.50163 1.09939,-12.13552 1.09938,8.03319 1.09938,-7.80951 1.09939,17.49299 1.09938,3.7278 1.09938,-3.41042 1.09939,-5.66712 1.09938,-8.01105 1.09938,1.38143 1.09939,20.16423 1.09938,-0.84845 1.09938,-11.37075 1.09939,-5.52351 1.09938,-7.68096 1.09938,-0.85835 1.09938,-18.31006 1.09939,12.48352 1.09938,23.55725 1.09939,-9.2291 1.09938,4.9582 1.09938,-14.24804 2.19877,31.42387 1.09938,-3.96161 1.09938,9.39748 1.09939,-10.18608 1.09938,18.53643 2.19877,9.48067 1.09938,1.12456 1.09938,-21.71518 1.09939,6.0215 1.09938,4.71219 1.09938,5.47005 1.09938,3.69486 1.09939,-6.93457 1.09938,6.73953 1.09938,-9.61993 1.09939,-0.14661 1.09938,-9.4403 1.09938,9.81548 1.09939,0.75737 1.09938,-0.58528 1.09938,5.49184 1.09939,-5.23696 1.09938,-2.77884 1.09938,0.64395 1.09939,-20.13456 1.09938,9.43809 1.09938,7.65085 1.09939,-2.27248 1.09938,-3.87905 1.09938,7.97284 1.09938,0.82477 1.09939,4.17778 1.09938,0.89891 1.09938,7.8653 1.09939,-6.61557 1.09938,-5.25161 1.09938,-2.55723 1.09939,-2.26083 1.09938,-2.6669 1.09938,7.85208 1.09939,5.63053 1.09938,-1.78702 1.09938,2.7787 1.09939,5.07926 1.09938,-1.53017 2.19877,18.54146 1.09938,-37.77669 1.09938,-3.72033 1.09939,9.92135 1.09938,-9.01138 1.09938,16.84848 1.09938,-0.62458 1.09939,11.32526 1.09938,-3.73519 1.09938,6.46464 1.09939,37.46491 1.09938,-20.60655 1.09938,4.55033 1.09939,-10.32248 1.09938,-1.79178 1.09938,-11.43432 1.09939,15.30248 1.09938,8.89479 1.09938,5.43856 2.19877,-3.69199 1.09938,18.49601 1.09939,-11.51293 1.09938,-16.32793 1.09938,-8.43274 1.09938,-0.62296 1.09939,10.74993 1.09938,2.15923 1.09938,-5.3354 2.19877,-30.35028 1.09938,10.81055 1.09939,-0.89909 1.09938,17.87239 1.09938,2.37991 1.09939,26.48708 1.09938,-2.82652 1.09938,-5.38639 1.09939,0.28578 1.09938,-8.22643 1.09938,4.53594 1.09938,-1.70812 1.09939,-6.71664 1.09938,-5.51749 1.09938,15.0251 1.09939,-12.65569 1.09938,-7.24833 1.09938,26.21529 1.09939,6.3773 1.09938,2.53463 1.09938,-6.32301 1.09939,18.71229 1.09938,-1.51199 1.09938,-12.90719 1.09939,15.46936 1.09938,1.46893 1.09938,0.88978 1.09939,-14.70392 1.09938,21.36124 1.09938,-1.37909 1.09938,-0.16477 1.09939,1.34602 1.09938,0.34703 1.09938,19.009 1.09939,3.80026 1.09938,-5.69336 1.09938,-11.17953 1.09939,7.20901 1.09938,-23.87547 1.09938,5.51767 1.09939,3.53575 1.09938,0.0138 1.09938,-11.87409 1.09939,9.87462 1.09938,-3.49958 1.09938,-27.56696 1.09938,0.77256 1.09939,-16.38763 1.09938,17.57846 1.09938,-2.35988 1.09939,2.33378 1.09938,29.56229 1.09938,11.91854 1.09939,17.78756 1.09938,0.36643 1.09938,1.69789 1.09939,8.91087 1.09938,-26.16341 1.09938,-13.45273 1.09939,22.28702 1.09938,12.60638 1.09938,1.67883 1.09939,-2.17751 1.09938,5.67315 1.09938,0.41681 1.09938,-9.6426 1.09939,9.76027 1.09938,4.35692 1.09938,15.04537 1.09939,-2.78382 1.09938,0.77156 1.09938,-17.14964 1.09939,-0.12674 1.09938,10.66834 1.09938,-4.91953 1.09939,-15.92988 1.09938,6.98334 1.09938,-11.90758 1.09939,6.54764 2.19876,-22.30431 1.09939,13.04382 1.09938,11.6268 1.09938,7.43959 1.09938,-16.27917 1.09939,-3.86607 1.09938,7.50846 1.09938,32.53241 1.09939,1.44509 1.09938,-7.61938 1.09938,-3.23996 1.09939,7.15108 1.09938,16.29562 1.09938,-11.76636 2.19877,15.34509 2.19877,3.50068 1.09938,-2.90418 1.09938,0.68446 1.09938,-6.95972 1.09939,-14.78815 1.09938,-1.18931 1.09938,-5.18822 1.09939,-8.60003 1.09938,-0.43134 1.09938,-2.31819 1.09939,4.14635 1.09938,-2.54416 1.09938,-16.82691 1.09939,5.49573 1.09938,9.59987 1.09938,-1.05964 1.09939,3.7428 1.09938,-11.44983 1.09938,4.26306 1.09939,12.2038 1.09938,17.82485 1.09938,-7.137 2.19877,-1.47224 1.09938,4.45199 1.09938,-3.72222 1.09939,-9.70932 1.09938,-4.81702 1.09938,12.36811 1.09939,1.45274 1.09938,-2.26683 1.09938,-5.43387 1.09939,1.74164 1.09938,18.98211 1.09938,-9.98153 1.09939,8.6475 1.09938,-30.13129 1.09938,-0.0935 1.09939,7.84466 1.09938,-9.39369 1.09938,6.83706 1.09938,-9.08531 1.09939,-6.87769 1.09938,2.64161 1.09939,11.33397 1.09938,-10.45168 1.09938,-3.38176 1.09938,3.41004 1.09939,16.16949 1.09938,6.76382 1.09938,2.30481 1.09939,-0.31782 1.09938,10.61509 1.09938,-0.94403 1.09939,-0.24452 1.09938,-11.31257 1.09938,11.268 1.09939,-6.27446 1.09938,4.793 1.09938,-8.31226 1.09938,-16.24993 1.09939,20.74254 1.09938,-10.67689 1.09938,-3.74175 1.09939,3.8708 1.09938,5.73688 1.09938,-1.64403 1.09939,-6.66317 1.09938,8.80568 1.09938,-5.52375 1.09939,9.55804 1.09938,-1.01057 1.09938,9.50637 1.09939,-0.43992 1.09938,-0.65884 1.09938,8.11374 1.09939,-4.56226 1.09938,3.58806 1.09938,-0.5535 1.09939,-19.15929 1.09938,2.9798 1.09938,0.9216 1.09938,-6.07753 1.09939,9.11346 1.09938,-1.33516 1.09938,0.93348 1.09939,1.21043 1.09938,-13.50423 1.09938,14.46018 1.09939,-0.2489 1.09938,3.83103 1.09938,-6.43921 1.09939,-2.22911 1.09938,15.02292 1.09938,-1.8195 1.09939,17.13474 1.09938,-17.27037 1.09938,-11.40662 1.09939,0.71163 1.09938,10.46714 1.09938,5.55641 1.09938,1.08607 1.09939,-5.16594 1.09938,0.4577 1.09938,8.81391 1.09939,-7.45976 1.09938,7.39532 1.09938,-17.22991 1.09939,-4.05185 1.09938,2.93913 1.09938,-18.51128 1.09939,9.91976 1.09938,2.30819 1.09938,-12.44734 1.09938,0.24203 1.09939,7.07835 1.09938,0.67704 1.09939,7.09504 1.09938,16.16598 1.09938,22.69337 1.09938,-9.24362 1.09939,-0.76181 1.09938,-0.29705 1.09938,-5.4152 2.19877,-21.93833 1.09938,-1.74291 1.09939,15.02272 1.09938,-2.05516 1.09938,4.90742 1.09939,-7.59283 1.09938,0.68574 1.09938,-10.11812 1.09938,4.52982 1.09939,6.72214 1.09938,-13.81212 1.09939,5.20179 1.09938,-22.6381 1.09938,-1.35212 1.09938,0.47382 1.09939,16.19464 1.09938,6.11279 1.09938,-2.45754 1.09939,-6.71886 1.09938,13.34542 1.09938,-0.84198 1.09939,13.89743 1.09938,0.38591 1.09938,-2.81525 1.09939,1.0063 1.09938,-13.86498 1.09938,-17.42154 1.09938,14.71441 1.09939,-43.65287 1.09938,6.98128 1.09939,11.86557 1.09938,-11.99851 1.09938,10.43307 1.09938,0.97057 1.09939,28.17934 1.09938,-11.75147 1.09938,-3.36969 1.09939,-5.52591 1.09938,1.6073 1.09938,5.40126 1.09939,11.31342 1.09938,-11.08876 2.19877,-10.72882 1.09938,18.453 1.09938,-15.6161 1.09938,-6.43368 1.09939,-10.99909 1.09938,0.0905 1.09938,-16.39511 1.09939,18.39509 1.09938,2.96797 1.09938,3.86535 1.09939,-27.63323 1.09938,25.1223 2.19877,37.02754 1.09938,-9.53764 2.19877,21.92707 1.09938,17.88436 1.09938,-19.01252 1.09939,3.23381 1.09938,-11.03308 2.19876,-9.88471 2.19877,-14.00103 1.09938,-16.7128 1.09939,14.75232 1.09938,-18.21635 1.09938,3.76088 1.09939,-4.4512 1.09938,3.08562 1.09938,0.0342 1.09939,-10.44732 1.09938,-7.6113 1.09938,2.07354 1.09939,-5.86386 1.09938,-0.97916 1.09938,7.63535 1.09939,11.09419 1.09938,2.16057 1.09938,13.61256 1.09938,-2.90165 1.09939,-0.23853 1.09938,-13.91631 1.09938,12.15903 1.09939,-3.61769 1.09938,4.83528 1.09938,0.47683 1.09939,-11.16753 1.09938,9.28974 1.09938,-7.30577 1.09939,0.30083 1.09938,6.63822 1.09938,21.43821 1.09939,1.06785 1.09938,0.14267 1.09938,-6.21631 1.09939,6.63306 1.09938,-2.02206 1.09938,3.86523 1.09938,-0.098 1.09939,0.18314 1.09938,7.03757 1.09938,8.4953 1.09939,-3.6446 1.09938,5.85231 1.09938,5.14309 1.09939,-1.79746 1.09938,-4.26509 1.09938,-6.00968 1.09939,15.6778 1.09938,-28.43514 1.09938,-15.42968 1.09939,2.0724 1.09938,24.46125 1.09938,-3.18111 1.09939,9.19737 1.09938,-3.89622 1.09938,-1.86639 1.09939,-12.27434 1.09938,-0.5652 1.09938,0.19236 1.09938,-6.56537 1.09939,3.12757 1.09938,2.49197 1.09938,-18.91261 1.09939,-11.37475 1.09938,13.70396 1.09938,2.93348 1.09939,-2.88765 1.09938,-11.06768 1.09938,-5.89844 1.09939,8.92708 1.09938,-7.95799 1.09938,-10.45483 1.09938,10.58173 1.09939,11.81278 1.09938,6.4908 1.09939,10.06894 1.09938,-0.64504 1.09938,6.99255 1.09938,-4.83802 1.09939,-9.60674 1.09938,2.86718 1.09938,11.15788 1.09939,-6.69126 1.09938,-7.93649 1.09938,-18.13859 1.09939,20.90614 1.09938,2.39116 1.09938,-27.77813 1.09939,15.14053 1.09938,9.34665 1.09938,0.052 1.09938,-11.61007 1.09939,0.0143 1.09938,-10.44062 1.09939,15.69333 1.09938,-17.11803 1.09938,10.22422 1.09938,5.18319 1.09939,-3.54917 1.09938,-5.43972 1.09938,1.98612 1.09939,6.24627 1.09938,0.37588 1.09938,8.66882 1.09939,-19.67696 1.09938,5.71349 1.09938,1.97668 1.09939,-6.26912 1.09938,-0.96131 1.09938,12.0664 1.09938,0.76371 1.09939,-7.04789 1.09938,-19.44197 1.09939,9.53848 1.09938,-4.146 1.09938,-7.78694 1.09938,-11.11843 1.09939,-2.92348 1.09938,26.70088 1.09938,-4.45315 1.09939,-11.74535 1.09938,5.20824 1.09938,-18.0053 1.09939,-2.00051 1.09938,7.03195 1.09938,12.41892 1.09939,-3.4379 1.09938,-9.22772 1.09938,-2.08176 1.09938,9.28032 1.09939,-4.10924 1.09938,10.72426 1.09938,-7.31321 1.09939,-9.56572 1.09938,-1.2163 1.09938,9.68699 1.09939,-1.48576 1.09938,15.42765 1.09938,0.44673 1.09939,-16.04934 1.09938,1.44341 1.09938,-7.21599 2.19877,-0.67485 1.09938,-1.26035 1.09939,5.6191 1.09938,8.16794 1.09938,2.67437 1.09938,-9.20367 1.09939,-12.35823 1.09938,-9.29376 1.09938,-10.76607 1.09939,2.11447 1.09938,16.56569 1.09938,-8.2883 1.09939,-5.98038 1.09938,2.33916 1.09938,10.09626 1.09939,-17.2187 1.09938,-5.8644 1.09938,8.43148 1.09939,-1.20698 1.09938,-8.42221 1.09938,1.73881 1.09939,20.60088 1.09938,14.10568 1.09938,-14.35075 1.09938,26.51061 1.09939,-20.86612 1.09938,-4.83308 1.09938,15.07258 2.19877,-26.70259 1.09938,-3.78874 1.09939,-5.97408 1.09938,-33.05247 1.09938,11.81616 1.09939,0.58344 1.09938,32.92157 1.09938,14.13429 1.09939,-7.45691 1.09938,5.65544 1.09938,21.52689 1.09939,-8.1333 1.09938,-3.07793 1.09938,8.28904 1.09938,-14.87397 1.09939,4.79699 1.09938,5.50166 1.09938,-11.92656 1.09939,-7.10543 1.09938,-14.42947 1.09938,2.68889 1.09939,-2.90672 1.09938,-9.73508 1.09938,-11.2639 1.09939,5.87542 1.09938,4.73048 1.09938,6.15762 1.09939,-6.9693 1.09938,2.88122 1.09938,13.26494 1.09939,6.47641 1.09938,-12.5524 1.09938,7.5896 1.09938,-0.9035 1.09939,-0.56634 1.09938,5.04531 1.09938,-6.14259 1.09939,-8.3305 1.09938,-4.58178 1.09938,-16.21009 1.09939,-7.47223 1.09938,4.54749 2.19877,25.38662 1.09938,2.10791 1.09938,-1.1802 1.09939,12.01896 1.09938,-2.65096 1.09938,0.89471 1.09939,8.09938 1.09938,2.4649 1.09938,-11.56798 1.09939,-5.14825 1.09938,-0.56717 1.09938,6.84214 1.09938,-20.17012 1.09939,23.3281 1.09938,-9.37264 1.09938,5.82331 1.09939,8.17898 1.09938,1.14535 1.09938,10.71401 1.09939,-13.81744 1.09938,-17.21214 1.09938,-20.47533 1.09938,12.57454 1.09939,16.71447 1.09938,4.13467 1.09938,-6.12673 1.09939,-1.28304 1.09938,-6.25316 1.09938,-13.48048 1.09939,8.10097 1.09938,6.28365 1.09938,-8.55042 1.09939,9.74405 1.09938,6.34089 1.09938,-3.34865 1.09939,-7.84449 1.09938,12.99931 1.09938,7.29395 1.09939,9.11238 1.09938,-11.87665 1.09938,4.23988 1.09938,20.54024 1.09939,-8.61991 1.09938,-4.74842 1.09938,9.361 1.09939,-11.42726 1.09938,-3.16068 1.09938,4.38723 1.09939,-8.79915 1.09938,-14.87876 1.09938,2.4883 1.09939,12.53974 1.09938,9.82792 1.09938,-19.27606 1.09939,23.98148 1.09938,-18.18142 1.09938,22.1063 1.09939,-5.40702 1.09938,-10.93999 1.09938,-4.99376 1.09938,14.19509 1.09939,-4.00058 1.09938,15.57865 1.09938,-1.33824 1.09939,10.2657 1.09938,-2.77221 1.09938,-6.36164 1.09939,9.28935 1.09938,18.794 1.09938,-0.54208 1.09939,-8.0309 1.09938,-6.42665 1.09938,-7.09244 1.09939,-1.70198 1.09938,-16.2425 1.09938,-12.73687 1.09939,11.65913 1.09938,4.71278 1.09938,-1.34443 2.19877,-16.40784 2.19876,8.44321 1.09939,19.79998 1.09938,0.12408 1.09938,-4.44652 1.09939,5.77496 1.09938,1.34431 1.09938,1.85066 1.09939,-20.28746 1.09938,-2.16413 1.09938,-10.43858 1.09939,3.89659 1.09938,1.27185 1.09938,4.22519 1.09939,12.29026 1.09938,22.2026 1.09938,-10.94731 1.09939,-21.44487 1.09938,7.65724 1.09938,5.56588 1.09938,-2.43184 1.09939,6.12129 1.09938,5.38051 1.09938,3.6965 1.09939,0.94773 1.09938,2.97452 1.09938,-4.77249 1.09939,8.08052 1.09938,-6.51991 1.09938,-3.09901 1.09939,12.71595 1.09938,16.28813 1.09938,1.41921 1.09936,-8.98474 1.0994,10.1012 1.0994,0.2869 1.0994,-8.4302 1.0994,0.71413 1.0993,20.23159 1.0994,-23.08189 1.0994,-7.18503 1.0994,-8.25507 1.0994,14.15218 1.0994,-4.44814 1.0993,-11.40176 1.0994,-7.19947 1.0994,4.10118 1.0994,-19.39943 1.0994,-4.25304 1.0994,8.72359 1.0993,3.82868 1.0994,1.96532 1.0994,-6.97351 1.0994,-3.48563 2.1988,21.24788 1.0993,-1.26319 1.0994,9.31362 1.0994,-3.03256 1.0994,2.25622 2.1988,27.46057 1.0993,-5.87676 1.0994,-0.67728 1.0994,-4.19508 1.0994,-22.44998 1.0994,-4.06618 1.0994,0.22338 1.0993,6.24886 1.0994,-1.66822 1.0994,0.184 1.0994,1.92696 1.0994,10.50966 1.0994,-0.77823 1.0993,-7.97934 1.0994,-10.02766 1.0994,-3.8751 1.0994,-13.43901 1.0994,-3.0486 1.0994,8.16453 2.1987,35.23187 1.0994,-0.50996 1.0994,12.49648 1.0994,16.62714 1.0994,-16.79727 1.0993,-4.57365 1.0994,-3.2412 1.0994,-2.70403 1.0994,1.0303 1.0994,-7.69407 1.0993,5.81245 1.0994,1.31755 1.0994,-4.62972 1.0994,7.84928 1.0994,9.77453 1.0994,-0.97996 1.0993,-3.5149 1.0994,10.6638 1.0994,1.08768 1.0994,-0.51917 1.0994,-4.83144 1.0994,-6.40179 1.0993,-10.97331 1.0994,-1.52245 1.0994,-8.92166 1.0994,11.27812 1.0994,-15.25217 1.0994,-2.39028 1.0993,0.35065 1.0994,11.9634 1.0994,2.43006 1.0994,-14.35869 1.0994,-5.72877 1.0994,11.71042 1.0993,22.85216 1.0994,6.13677 v 0"
           clip-path="url(#p18f436c5b3)"
           style="fill:none;stroke:#1f77b4;stroke-width:1.5;stroke-linecap:square;stroke-opacity:0.3"
           id="path315" />
      </g>
      <g
         id="line2d_15">
        <path
           d="M 114.4311,606.04 V 26.88"
           clip-path="url(#p18f436c5b3)"
           style="fill:none;stroke:#008000;stroke-width:1.5;stroke-dasharray:5.55, 2.4;stroke-dashoffset:0"
           id="path318" />
      </g>
      <g
         id="line2d_16">
        <path
           d="M 268.34475,606.04 V 26.88"
           clip-path="url(#p18f436c5b3)"
           style="fill:none;stroke:#000000;stroke-width:1.5;stroke-dasharray:5.55, 2.4;stroke-dashoffset:0"
           id="path321" />
      </g>
      <g
         id="line2d_17">
        <path
           d="M 708.09801,606.04 V 26.88"
           clip-path="url(#p18f436c5b3)"
           style="fill:none;stroke:#008000;stroke-width:1.5;stroke-dasharray:5.55, 2.4;stroke-dashoffset:0"
           id="path324" />
      </g>
      <g
         id="line2d_18">
        <path
           d="M 862.01165,606.04 V 26.88"
           clip-path="url(#p18f436c5b3)"
           style="fill:none;stroke:#000000;stroke-width:1.5;stroke-dasharray:5.55, 2.4;stroke-dashoffset:0"
           id="path327" />
      </g>
      <g
         id="line2d_19">
        <path
           d="M 103.43727,606.04 V 26.88"
           clip-path="url(#p18f436c5b3)"
           style="fill:none;stroke:#808080;stroke-width:1.5;stroke-linecap:square;stroke-opacity:0.3"
           id="path330" />
      </g>
      <g
         id="line2d_20">
        <path
           d="M 54.02,412.98667 H 1141.2"
           clip-path="url(#p18f436c5b3)"
           style="fill:none;stroke:#ff0000;stroke-width:1.5;stroke-dasharray:1.5, 2.475;stroke-dashoffset:0"
           id="path333" />
      </g>
      <g
         id="patch_3">
        <path
           d="M 54.02,606.04 V 26.88"
           style="fill:none;stroke:#000000;stroke-width:0.8;stroke-linecap:square;stroke-linejoin:miter"
           id="path336" />
      </g>
      <g
         id="patch_4">
        <path
           d="M 54.02,606.04 H 1141.2"
           style="fill:none;stroke:#000000;stroke-width:0.8;stroke-linecap:square;stroke-linejoin:miter"
           id="path339" />
      </g>
      <g
         id="legend_1"
         transform="matrix(2.3918676,0,0,2.3918676,-1573.2034,371.56714)">
        <g
           id="patch_5">
          <path
             d="M 1010.0453,93.5925 H 1134.2 q 2,0 2,-2 V 33.88 q 0,-2 -2,-2 h -124.1547 q -2,0 -2,2 v 57.7125 q 0,2 2,2 z"
             style="opacity:0.8;fill:#ffffff;stroke:#cccccc;stroke-linejoin:miter"
             id="path495" />
        </g>
        <g
           id="line2d_21">
          <path
             d="m 1012.0453,39.978437 h 10 10"
             style="fill:none;stroke:#008000;stroke-width:1.5;stroke-dasharray:5.55, 2.4;stroke-dashoffset:0"
             id="path498" />
        </g>
        <g
           id="text_17">
          <!-- onset stimulus -->
          <g
             transform="matrix(0.1,0,0,-0.1,1040.0453,43.478437)"
             id="g529">
            <path
               id="use501"
               d="m 30.609375,48.390625 q -7.21875,0 -11.421875,-5.640625 -4.203125,-5.640625 -4.203125,-15.453125 0,-9.8125 4.171875,-15.453125 4.1875,-5.640625 11.453125,-5.640625 7.1875,0 11.375,5.65625 4.203125,5.671875 4.203125,15.4375 0,9.71875 -4.203125,15.40625 -4.1875,5.6875 -11.375,5.6875 z m 0,7.609375 q 11.71875,0 18.40625,-7.625 6.703125,-7.609375 6.703125,-21.078125 0,-13.421875 -6.703125,-21.078125 -6.6875,-7.640625 -18.40625,-7.640625 -11.765625,0 -18.4375,7.640625 -6.65625,7.65625 -6.65625,21.078125 0,13.46875 6.65625,21.078125 Q 18.84375,56 30.609375,56 Z"
               style="stroke-width:0.015625" />
            <path
               id="use503"
               d="M 116.07227,33.015625 V 0 h -8.98438 v 32.71875 q 0,7.765625 -3.03125,11.609375 -3.03125,3.859375 -9.078124,3.859375 -7.28125,0 -11.484375,-4.640625 -4.203125,-4.625 -4.203125,-12.640625 V 0 h -9.03125 v 54.6875 h 9.03125 v -8.5 q 3.234375,4.9375 7.59375,7.375 4.375,2.4375 10.09375,2.4375 9.421874,0 14.250004,-5.828125 4.84375,-5.828125 4.84375,-17.15625 z"
               style="stroke-width:0.015625" />
            <path
               id="use505"
               d="m 168.8418,53.078125 v -8.5 q -3.79688,1.953125 -7.90625,2.921875 -4.09375,0.984375 -8.5,0.984375 -6.6875,0 -10.03125,-2.046875 -3.34375,-2.046875 -3.34375,-6.15625 0,-3.125 2.39062,-4.90625 2.39063,-1.78125 9.625,-3.390625 l 3.07813,-0.6875 q 9.5625,-2.046875 13.59375,-5.78125 4.03125,-3.734375 4.03125,-10.421875 0,-7.625 -6.03125,-12.078125 -6.03125,-4.4375 -16.57813,-4.4375 -4.39062,0 -9.15625,0.859375 Q 135.24805,0.296875 129.98242,2 v 9.28125 q 4.98438,-2.59375 9.8125,-3.890625 4.82813,-1.28125 9.57813,-1.28125 6.34375,0 9.75,2.171875 3.42187,2.171875 3.42187,6.125 0,3.65625 -2.46875,5.609375 -2.45312,1.953125 -10.8125,3.765625 l -3.125,0.734375 q -8.34375,1.75 -12.0625,5.390625 -3.70312,3.640625 -3.70312,9.984375 0,7.71875 5.46875,11.90625 Q 141.31055,56 151.37305,56 q 4.96875,0 9.35937,-0.734375 4.40625,-0.71875 8.10938,-2.1875 z"
               style="stroke-width:0.015625" />
            <use
               xlink:href="#DejaVuSans-65"
               x="176.66016"
               id="use507" />
            <use
               xlink:href="#DejaVuSans-74"
               x="238.18359"
               id="use509" />
            <path
               id="use511"
               d=""
               style="stroke-width:0.015625" />
            <path
               id="use513"
               d="m 353.46094,53.078125 v -8.5 q -3.79688,1.953125 -7.90625,2.921875 -4.09375,0.984375 -8.5,0.984375 -6.6875,0 -10.03125,-2.046875 -3.34375,-2.046875 -3.34375,-6.15625 0,-3.125 2.39062,-4.90625 2.39063,-1.78125 9.625,-3.390625 l 3.07813,-0.6875 q 9.5625,-2.046875 13.59375,-5.78125 4.03125,-3.734375 4.03125,-10.421875 0,-7.625 -6.03125,-12.078125 -6.03125,-4.4375 -16.57813,-4.4375 -4.39062,0 -9.15625,0.859375 Q 319.86719,0.296875 314.60156,2 v 9.28125 q 4.98438,-2.59375 9.8125,-3.890625 4.82813,-1.28125 9.57813,-1.28125 6.34375,0 9.75,2.171875 3.42187,2.171875 3.42187,6.125 0,3.65625 -2.46875,5.609375 -2.45312,1.953125 -10.8125,3.765625 l -3.125,0.734375 q -8.34375,1.75 -12.0625,5.390625 -3.70312,3.640625 -3.70312,9.984375 0,7.71875 5.46875,11.90625 Q 325.92969,56 335.99219,56 q 4.96875,0 9.35937,-0.734375 4.40625,-0.71875 8.10938,-2.1875 z"
               style="stroke-width:0.015625" />
            <use
               xlink:href="#DejaVuSans-74"
               x="361.2793"
               id="use515" />
            <use
               xlink:href="#DejaVuSans-69"
               x="400.48828"
               id="use517" />
            <use
               xlink:href="#DejaVuSans-6d"
               x="428.27148"
               id="use519" />
            <use
               xlink:href="#DejaVuSans-75"
               x="525.68359"
               id="use521" />
            <path
               id="use523"
               d="m 598.48437,75.984375 h 8.98438 V 0 h -8.98438 z"
               style="stroke-width:0.015625" />
            <use
               xlink:href="#DejaVuSans-75"
               x="616.8457"
               id="use525" />
            <path
               id="use527"
               d="m 724.50586,53.078125 v -8.5 q -3.79688,1.953125 -7.90625,2.921875 -4.09375,0.984375 -8.5,0.984375 -6.6875,0 -10.03125,-2.046875 -3.34375,-2.046875 -3.34375,-6.15625 0,-3.125 2.39062,-4.90625 2.39063,-1.78125 9.625,-3.390625 l 3.07813,-0.6875 q 9.5625,-2.046875 13.59375,-5.78125 4.03125,-3.734375 4.03125,-10.421875 0,-7.625 -6.03125,-12.078125 -6.03125,-4.4375 -16.57813,-4.4375 -4.39062,0 -9.15625,0.859375 Q 690.91211,0.296875 685.64648,2 v 9.28125 q 4.98438,-2.59375 9.8125,-3.890625 4.82813,-1.28125 9.57813,-1.28125 6.34375,0 9.75,2.171875 3.42187,2.171875 3.42187,6.125 0,3.65625 -2.46875,5.609375 -2.45312,1.953125 -10.8125,3.765625 l -3.125,0.734375 q -8.34375,1.75 -12.0625,5.390625 -3.70312,3.640625 -3.70312,9.984375 0,7.71875 5.46875,11.90625 Q 696.97461,56 707.03711,56 q 4.96875,0 9.35937,-0.734375 4.40625,-0.71875 8.10938,-2.1875 z"
               style="stroke-width:0.015625" />
          </g>
        </g>
        <g
           id="line2d_22">
          <path
             d="m 1012.0453,54.656562 h 10 10"
             style="fill:none;stroke:#000000;stroke-width:1.5;stroke-dasharray:5.55, 2.4;stroke-dashoffset:0"
             id="path532" />
        </g>
        <g
           id="text_18">
          <!-- offset stimulus -->
          <g
             transform="matrix(0.1,0,0,-0.1,1040.0453,58.156562)"
             id="g565">
            <path
               id="use535"
               d="m 30.609375,48.390625 q -7.21875,0 -11.421875,-5.640625 -4.203125,-5.640625 -4.203125,-15.453125 0,-9.8125 4.171875,-15.453125 4.1875,-5.640625 11.453125,-5.640625 7.1875,0 11.375,5.65625 4.203125,5.671875 4.203125,15.4375 0,9.71875 -4.203125,15.40625 -4.1875,5.6875 -11.375,5.6875 z m 0,7.609375 q 11.71875,0 18.40625,-7.625 6.703125,-7.609375 6.703125,-21.078125 0,-13.421875 -6.703125,-21.078125 -6.6875,-7.640625 -18.40625,-7.640625 -11.765625,0 -18.4375,7.640625 -6.65625,7.65625 -6.65625,21.078125 0,13.46875 6.65625,21.078125 Q 18.84375,56 30.609375,56 Z"
               style="stroke-width:0.015625" />
            <path
               id="use537"
               d="M 98.291016,75.984375 V 68.5 h -8.59375 q -4.828125,0 -6.71875,-1.953125 -1.875,-1.953125 -1.875,-7.03125 V 54.6875 H 95.900391 V 47.703125 H 81.103516 V 0 h -9.03125 v 47.703125 h -8.59375 V 54.6875 h 8.59375 V 58.5 q 0,9.125 4.25,13.296875 4.25,4.1875 13.46875,4.1875 z"
               style="stroke-width:0.015625" />
            <path
               id="use539"
               d="M 133.49609,75.984375 V 68.5 h -8.59375 q -4.82812,0 -6.71875,-1.953125 -1.875,-1.953125 -1.875,-7.03125 V 54.6875 h 14.79688 V 47.703125 H 116.30859 V 0 h -9.03125 V 47.703125 H 98.683594 V 54.6875 h 8.593746 V 58.5 q 0,9.125 4.25,13.296875 4.25,4.1875 13.46875,4.1875 z"
               style="stroke-width:0.015625" />
            <path
               id="use541"
               d="m 175.87305,53.078125 v -8.5 Q 172.07617,46.53125 167.9668,47.5 q -4.09375,0.984375 -8.5,0.984375 -6.6875,0 -10.03125,-2.046875 -3.34375,-2.046875 -3.34375,-6.15625 0,-3.125 2.39062,-4.90625 2.39063,-1.78125 9.625,-3.390625 l 3.07813,-0.6875 q 9.5625,-2.046875 13.59375,-5.78125 4.03125,-3.734375 4.03125,-10.421875 0,-7.625 -6.03125,-12.078125 -6.03125,-4.4375 -16.57813,-4.4375 -4.39062,0 -9.15625,0.859375 Q 142.2793,0.296875 137.01367,2 v 9.28125 q 4.98438,-2.59375 9.8125,-3.890625 4.82813,-1.28125 9.57813,-1.28125 6.34375,0 9.75,2.171875 3.42187,2.171875 3.42187,6.125 0,3.65625 -2.46875,5.609375 -2.45312,1.953125 -10.8125,3.765625 l -3.125,0.734375 q -8.34375,1.75 -12.0625,5.390625 -3.70312,3.640625 -3.70312,9.984375 0,7.71875 5.46875,11.90625 Q 148.3418,56 158.4043,56 q 4.96875,0 9.35937,-0.734375 4.40625,-0.71875 8.10938,-2.1875 z"
               style="stroke-width:0.015625" />
            <use
               xlink:href="#DejaVuSans-65"
               x="183.69141"
               id="use543" />
            <use
               xlink:href="#DejaVuSans-74"
               x="245.21484"
               id="use545" />
            <path
               id="use547"
               d=""
               style="stroke-width:0.015625" />
            <path
               id="use549"
               d="m 360.49219,53.078125 v -8.5 q -3.79688,1.953125 -7.90625,2.921875 -4.09375,0.984375 -8.5,0.984375 -6.6875,0 -10.03125,-2.046875 -3.34375,-2.046875 -3.34375,-6.15625 0,-3.125 2.39062,-4.90625 2.39063,-1.78125 9.625,-3.390625 l 3.07813,-0.6875 q 9.5625,-2.046875 13.59375,-5.78125 4.03125,-3.734375 4.03125,-10.421875 0,-7.625 -6.03125,-12.078125 -6.03125,-4.4375 -16.57813,-4.4375 -4.39062,0 -9.15625,0.859375 Q 326.89844,0.296875 321.63281,2 v 9.28125 q 4.98438,-2.59375 9.8125,-3.890625 4.82813,-1.28125 9.57813,-1.28125 6.34375,0 9.75,2.171875 3.42187,2.171875 3.42187,6.125 0,3.65625 -2.46875,5.609375 -2.45312,1.953125 -10.8125,3.765625 l -3.125,0.734375 q -8.34375,1.75 -12.0625,5.390625 -3.70312,3.640625 -3.70312,9.984375 0,7.71875 5.46875,11.90625 Q 332.96094,56 343.02344,56 q 4.96875,0 9.35937,-0.734375 4.40625,-0.71875 8.10938,-2.1875 z"
               style="stroke-width:0.015625" />
            <use
               xlink:href="#DejaVuSans-74"
               x="368.31055"
               id="use551" />
            <use
               xlink:href="#DejaVuSans-69"
               x="407.51953"
               id="use553" />
            <use
               xlink:href="#DejaVuSans-6d"
               x="435.30273"
               id="use555" />
            <use
               xlink:href="#DejaVuSans-75"
               x="532.71484"
               id="use557" />
            <path
               id="use559"
               d="M 605.51562,75.984375 H 614.5 V 0 h -8.98438 z"
               style="stroke-width:0.015625" />
            <use
               xlink:href="#DejaVuSans-75"
               x="623.87695"
               id="use561" />
            <path
               id="use563"
               d="m 731.53711,53.078125 v -8.5 q -3.79688,1.953125 -7.90625,2.921875 -4.09375,0.984375 -8.5,0.984375 -6.6875,0 -10.03125,-2.046875 -3.34375,-2.046875 -3.34375,-6.15625 0,-3.125 2.39062,-4.90625 2.39063,-1.78125 9.625,-3.390625 l 3.07813,-0.6875 q 9.5625,-2.046875 13.59375,-5.78125 4.03125,-3.734375 4.03125,-10.421875 0,-7.625 -6.03125,-12.078125 -6.03125,-4.4375 -16.57813,-4.4375 -4.39062,0 -9.15625,0.859375 Q 697.94336,0.296875 692.67773,2 v 9.28125 q 4.98438,-2.59375 9.8125,-3.890625 4.82813,-1.28125 9.57813,-1.28125 6.34375,0 9.75,2.171875 3.42187,2.171875 3.42187,6.125 0,3.65625 -2.46875,5.609375 -2.45312,1.953125 -10.8125,3.765625 l -3.125,0.734375 q -8.34375,1.75 -12.0625,5.390625 -3.70312,3.640625 -3.70312,9.984375 0,7.71875 5.46875,11.90625 Q 704.00586,56 714.06836,56 q 4.96875,0 9.35937,-0.734375 4.40625,-0.71875 8.10938,-2.1875 z"
               style="stroke-width:0.015625" />
          </g>
        </g>
        <g
           id="line2d_23">
          <path
             d="m 1012.0453,69.334687 h 10 10"
             style="fill:none;stroke:#808080;stroke-width:1.5;stroke-linecap:square;stroke-opacity:0.3"
             id="path568" />
        </g>
        <g
           id="text_19">
          <!-- sliding window -->
          <g
             transform="matrix(0.1,0,0,-0.1,1040.0453,72.834687)"
             id="g599">
            <path
               id="use571"
               d="m 44.28125,53.078125 v -8.5 Q 40.484375,46.53125 36.375,47.5 q -4.09375,0.984375 -8.5,0.984375 -6.6875,0 -10.03125,-2.046875 Q 14.5,44.390625 14.5,40.28125 q 0,-3.125 2.390625,-4.90625 2.390625,-1.78125 9.625,-3.390625 l 3.078125,-0.6875 Q 39.15625,29.25 43.1875,25.515625 47.21875,21.78125 47.21875,15.09375 q 0,-7.625 -6.03125,-12.078125 -6.03125,-4.4375 -16.578125,-4.4375 -4.390625,0 -9.15625,0.859375 Q 10.6875,0.296875 5.421875,2 v 9.28125 q 4.984375,-2.59375 9.8125,-3.890625 4.828125,-1.28125 9.578125,-1.28125 6.34375,0 9.75,2.171875 3.421875,2.171875 3.421875,6.125 0,3.65625 -2.46875,5.609375 -2.453125,1.953125 -10.8125,3.765625 l -3.125,0.734375 q -8.34375,1.75 -12.0625,5.390625 -3.703125,3.640625 -3.703125,9.984375 0,7.71875 5.46875,11.90625 Q 16.75,56 26.8125,56 q 4.96875,0 9.359375,-0.734375 4.40625,-0.71875 8.109375,-2.1875 z"
               style="stroke-width:0.015625" />
            <path
               id="use573"
               d="m 61.521484,75.984375 h 8.984375 V 0 h -8.984375 z"
               style="stroke-width:0.015625" />
            <use
               xlink:href="#DejaVuSans-69"
               x="79.882812"
               id="use575" />
            <path
               id="use577"
               d="m 153.07227,46.390625 v 29.59375 h 8.98438 V 0 h -8.98438 v 8.203125 q -2.82812,-4.875 -7.15625,-7.25 -4.3125,-2.375 -10.375,-2.375 -9.90625,0 -16.14062,7.90625 -6.21875,7.921875 -6.21875,20.8125 0,12.890625 6.21875,20.796875 Q 125.63477,56 135.54102,56 q 6.0625,0 10.375,-2.375 4.32813,-2.359375 7.15625,-7.234375 z M 122.4629,27.296875 q 0,-9.90625 4.07812,-15.546875 4.07813,-5.640625 11.20313,-5.640625 7.125,0 11.21875,5.640625 4.10937,5.640625 4.10937,15.546875 0,9.90625 -4.10937,15.546875 -4.09375,5.640625 -11.21875,5.640625 -7.125,0 -11.20313,-5.640625 -4.07812,-5.640625 -4.07812,-15.546875 z"
               style="stroke-width:0.015625" />
            <use
               xlink:href="#DejaVuSans-69"
               x="171.14258"
               id="use579" />
            <path
               id="use581"
               d="M 253.81641,33.015625 V 0 h -8.98438 v 32.71875 q 0,7.765625 -3.03125,11.609375 -3.03125,3.859375 -9.07812,3.859375 -7.28125,0 -11.48438,-4.640625 -4.20312,-4.625 -4.20312,-12.640625 V 0 h -9.03125 v 54.6875 h 9.03125 v -8.5 q 3.23437,4.9375 7.59375,7.375 4.375,2.4375 10.09375,2.4375 9.42187,0 14.25,-5.828125 4.84375,-5.828125 4.84375,-17.15625 z"
               style="stroke-width:0.015625" />
            <path
               id="use583"
               d="m 307.71094,27.984375 q 0,9.765625 -4.03125,15.125 -4.01563,5.375 -11.29688,5.375 -7.21875,0 -11.25,-5.375 -4.03125,-5.359375 -4.03125,-15.125 0,-9.71875 4.03125,-15.09375 4.03125,-5.375 11.25,-5.375 7.28125,0 11.29688,5.375 4.03125,5.375 4.03125,15.09375 z M 316.69531,6.78125 q 0,-13.953125 -6.20312,-20.765625 -6.1875,-6.8125 -18.98438,-6.8125 -4.73437,0 -8.9375,0.703125 -4.20312,0.703125 -8.15625,2.171875 V -9.1875 q 3.95313,-2.140625 7.8125,-3.15625 3.85938,-1.03125 7.85938,-1.03125 8.84375,0 13.23437,4.609375 4.39063,4.609375 4.39063,13.9375 V 9.625 Q 304.92969,4.78125 300.58594,2.390625 296.24219,0 290.17969,0 q -10.04688,0 -16.20313,7.65625 -6.15625,7.671875 -6.15625,20.328125 0,12.6875 6.15625,20.34375 Q 280.13281,56 290.17969,56 q 6.0625,0 10.40625,-2.390625 4.34375,-2.390625 7.125,-7.21875 V 54.6875 h 8.98437 z"
               style="stroke-width:0.015625" />
            <path
               id="use585"
               d=""
               style="stroke-width:0.015625" />
            <path
               id="use587"
               d="m 361.77148,54.6875 h 8.98438 L 381.99023,12.015625 393.16211,54.6875 h 10.59375 l 11.23437,-42.671875 11.1875,42.671875 h 8.98438 L 420.84961,0 H 410.25586 L 398.49023,44.828125 386.67773,0 h -10.60937 z"
               style="stroke-width:0.015625" />
            <use
               xlink:href="#DejaVuSans-69"
               x="439.35547"
               id="use589" />
            <path
               id="use591"
               d="M 522.0293,33.015625 V 0 h -8.98438 v 32.71875 q 0,7.765625 -3.03125,11.609375 -3.03125,3.859375 -9.07812,3.859375 -7.28125,0 -11.48438,-4.640625 -4.20312,-4.625 -4.20312,-12.640625 V 0 h -9.03125 v 54.6875 h 9.03125 v -8.5 q 3.23437,4.9375 7.59375,7.375 4.375,2.4375 10.09375,2.4375 9.42187,0 14.25,-5.828125 4.84375,-5.828125 4.84375,-17.15625 z"
               style="stroke-width:0.015625" />
            <path
               id="use593"
               d="m 575.92383,46.390625 v 29.59375 h 8.98437 V 0 h -8.98437 v 8.203125 q -2.82813,-4.875 -7.15625,-7.25 -4.3125,-2.375 -10.375,-2.375 -9.90625,0 -16.14063,7.90625 -6.21875,7.921875 -6.21875,20.8125 0,12.890625 6.21875,20.796875 Q 548.48633,56 558.39258,56 q 6.0625,0 10.375,-2.375 4.32812,-2.359375 7.15625,-7.234375 z m -30.60938,-19.09375 q 0,-9.90625 4.07813,-15.546875 4.07812,-5.640625 11.20312,-5.640625 7.125,0 11.21875,5.640625 4.10938,5.640625 4.10938,15.546875 0,9.90625 -4.10938,15.546875 -4.09375,5.640625 -11.21875,5.640625 -7.125,0 -11.20312,-5.640625 -4.07813,-5.640625 -4.07813,-15.546875 z"
               style="stroke-width:0.015625" />
            <path
               id="use595"
               d="m 624.60352,48.390625 q -7.21875,0 -11.42188,-5.640625 -4.20312,-5.640625 -4.20312,-15.453125 0,-9.8125 4.17187,-15.453125 4.1875,-5.640625 11.45313,-5.640625 7.1875,0 11.375,5.65625 4.20312,5.671875 4.20312,15.4375 0,9.71875 -4.20312,15.40625 -4.1875,5.6875 -11.375,5.6875 z m 0,7.609375 q 11.71875,0 18.40625,-7.625 6.70312,-7.609375 6.70312,-21.078125 0,-13.421875 -6.70312,-21.078125 -6.6875,-7.640625 -18.40625,-7.640625 -11.76563,0 -18.4375,7.640625 -6.65625,7.65625 -6.65625,21.078125 0,13.46875 6.65625,21.078125 6.67187,7.625 18.4375,7.625 z"
               style="stroke-width:0.015625" />
            <path
               id="use597"
               d="m 659.37891,54.6875 h 8.98437 L 679.59766,12.015625 690.76953,54.6875 h 10.59375 l 11.23438,-42.671875 11.1875,42.671875 h 8.98437 L 718.45703,0 H 707.86328 L 696.09766,44.828125 684.28516,0 h -10.60938 z"
               style="stroke-width:0.015625" />
          </g>
        </g>
        <g
           id="line2d_24">
          <path
             d="m 1012.0453,84.012812 h 10 10"
             style="fill:none;stroke:#ff0000;stroke-width:1.5;stroke-dasharray:1.5, 2.475;stroke-dashoffset:0"
             id="path602" />
        </g>
        <g
           id="text_20">
          <!-- chance-level: 0.25 -->
          <g
             transform="matrix(0.1,0,0,-0.1,1040.0453,87.512812)"
             id="g647">
            <defs
               id="defs609">
              <path
                 id="DejaVuSans-2d"
                 d="M 313,2009 H 1997 V 1497 H 313 Z"
                 transform="scale(0.015625)" />
              <path
                 id="DejaVuSans-76"
                 d="M 191,3500 H 800 L 1894,563 2988,3500 h 609 L 2284,0 h -781 z"
                 transform="scale(0.015625)" />
              <path
                 id="DejaVuSans-3a"
                 d="m 750,794 h 659 V 0 H 750 Z m 0,2515 h 659 V 2516 H 750 Z"
                 transform="scale(0.015625)" />
              <path
                 id="DejaVuSans-35"
                 d="M 691,4666 H 3169 V 4134 H 1269 V 2991 q 137,47 274,70 138,23 276,23 781,0 1237,-428 457,-428 457,-1159 Q 3513,744 3044,326 2575,-91 1722,-91 1428,-91 1123,-41 819,9 494,109 v 635 q 281,-153 581,-228 300,-75 634,-75 541,0 856,284 316,284 316,772 0,487 -316,771 -315,285 -856,285 -253,0 -505,-56 -251,-56 -513,-175 z"
                 transform="scale(0.015625)" />
            </defs>
            <use
               xlink:href="#DejaVuSans-63"
               id="use611" />
            <path
               id="use613"
               d="M 109.87109,33.015625 V 0 h -8.98437 v 32.71875 q 0,7.765625 -3.031251,11.609375 -3.03125,3.859375 -9.078125,3.859375 -7.28125,0 -11.484375,-4.640625 -4.203125,-4.625 -4.203125,-12.640625 V 0 h -9.03125 v 75.984375 h 9.03125 V 46.1875 q 3.234375,4.9375 7.59375,7.375 4.375,2.4375 10.09375,2.4375 9.421876,0 14.249996,-5.828125 4.84375,-5.828125 4.84375,-17.15625 z"
               style="stroke-width:0.015625" />
            <use
               xlink:href="#DejaVuSans-61"
               x="118.35938"
               id="use615" />
            <path
               id="use617"
               d="M 234.5293,33.015625 V 0 h -8.98438 v 32.71875 q 0,7.765625 -3.03125,11.609375 -3.03125,3.859375 -9.07812,3.859375 -7.28125,0 -11.48438,-4.640625 -4.20312,-4.625 -4.20312,-12.640625 V 0 h -9.03125 v 54.6875 h 9.03125 v -8.5 q 3.23437,4.9375 7.59375,7.375 4.375,2.4375 10.09375,2.4375 9.42187,0 14.25,-5.828125 4.84375,-5.828125 4.84375,-17.15625 z"
               style="stroke-width:0.015625" />
            <use
               xlink:href="#DejaVuSans-63"
               x="243.01758"
               id="use619" />
            <use
               xlink:href="#DejaVuSans-65"
               x="297.99805"
               id="use621" />
            <use
               xlink:href="#DejaVuSans-2d"
               x="359.52148"
               id="use623" />
            <path
               id="use625"
               d="m 405.02734,75.984375 h 8.98438 V 0 h -8.98438 z"
               style="stroke-width:0.015625" />
            <use
               xlink:href="#DejaVuSans-65"
               x="423.38867"
               id="use627" />
            <use
               xlink:href="#DejaVuSans-76"
               x="484.91211"
               id="use629" />
            <use
               xlink:href="#DejaVuSans-65"
               x="544.0918"
               id="use631" />
            <path
               id="use633"
               d="m 615.03711,75.984375 h 8.98437 V 0 h -8.98437 z"
               style="stroke-width:0.015625" />
            <use
               xlink:href="#DejaVuSans-3a"
               x="633.39844"
               id="use635" />
            <path
               id="use637"
               d=""
               style="stroke-width:0.015625" />
            <use
               xlink:href="#DejaVuSans-30"
               x="698.87695"
               id="use639" />
            <use
               xlink:href="#DejaVuSans-2e"
               x="762.5"
               id="use641" />
            <use
               xlink:href="#DejaVuSans-32"
               x="794.28711"
               id="use643" />
            <use
               xlink:href="#DejaVuSans-35"
               x="857.91016"
               id="use645" />
          </g>
        </g>
      </g>
    </g>
  </g>
  <defs
     id="defs656">
    <clipPath
       id="p18f436c5b3">
      <rect
         x="54.02"
         y="26.879999"
         width="1087.1801"
         height="579.15997"
         id="rect653" />
    </clipPath>
  </defs>
</svg>
