<?xml version="1.0" encoding="UTF-8" standalone="no"?>
<svg
   width="432pt"
   height="180pt"
   viewBox="0 0 432 180"
   version="1.1"
   id="svg453"
   sodipodi:docname="gain-simulation-magnitude.svg"
   inkscape:version="1.2.2 (b0a8486541, 2022-12-01)"
   xmlns:inkscape="http://www.inkscape.org/namespaces/inkscape"
   xmlns:sodipodi="http://sodipodi.sourceforge.net/DTD/sodipodi-0.dtd"
   xmlns:xlink="http://www.w3.org/1999/xlink"
   xmlns="http://www.w3.org/2000/svg"
   xmlns:svg="http://www.w3.org/2000/svg"
   xmlns:rdf="http://www.w3.org/1999/02/22-rdf-syntax-ns#"
   xmlns:cc="http://creativecommons.org/ns#"
   xmlns:dc="http://purl.org/dc/elements/1.1/">
  <sodipodi:namedview
     id="namedview455"
     pagecolor="#ffffff"
     bordercolor="#666666"
     borderopacity="1.0"
     inkscape:showpageshadow="2"
     inkscape:pageopacity="0.0"
     inkscape:pagecheckerboard="0"
     inkscape:deskcolor="#d1d1d1"
     inkscape:document-units="pt"
     showgrid="false"
     inkscape:zoom="2.3871528"
     inkscape:cx="201.07636"
     inkscape:cy="119.808"
     inkscape:window-width="2560"
     inkscape:window-height="1371"
     inkscape:window-x="0"
     inkscape:window-y="1472"
     inkscape:window-maximized="1"
     inkscape:current-layer="figure_1" />
  <metadata
     id="metadata2">
    <rdf:RDF>
      <cc:Work>
        <dc:type
           rdf:resource="http://purl.org/dc/dcmitype/StillImage" />
        <dc:date>2023-12-06T13:29:59.859877</dc:date>
        <dc:format>image/svg+xml</dc:format>
        <dc:creator>
          <cc:Agent>
            <dc:title>Matplotlib v3.7.0, https://matplotlib.org/</dc:title>
          </cc:Agent>
        </dc:creator>
      </cc:Work>
    </rdf:RDF>
  </metadata>
  <defs
     id="defs6">
    <style
       type="text/css"
       id="style4">*{stroke-linejoin: round; stroke-linecap: butt}</style>
  </defs>
  <g
     id="figure_1">
    <g
       id="axes_1">
      <g
         id="patch_2">
        <path
           d="M 79.09 130.12  L 407.655 130.12  L 407.655 12.96  L 79.09 12.96  z "
           style="fill: #ffffff"
           id="path11" />
      </g>
      <g
         id="matplotlib.axis_1">
        <g
           id="xtick_1">
          <g
             id="line2d_1">
            <defs
               id="defs15">
              <path
                 id="ma0a6022bca"
                 d="M 0 0  L 0 3.5  "
                 style="stroke: #000000; stroke-width: 0.8" />
            </defs>
            <g
               id="g19">
              <use
                 xlink:href="#ma0a6022bca"
                 x="79.09"
                 y="130.12"
                 style="stroke: #000000; stroke-width: 0.8"
                 id="use17" />
            </g>
          </g>
          <g
             id="text_1">
            <!-- 210 -->
            <g
               transform="translate(67.6375 146.238125) scale(0.12 -0.12)"
               id="g33">
              <defs
                 id="defs25">
                <path
                   id="DejaVuSans-32"
                   d="M 1228 531  L 3431 531  L 3431 0  L 469 0  L 469 531  Q 828 903 1448 1529  Q 2069 2156 2228 2338  Q 2531 2678 2651 2914  Q 2772 3150 2772 3378  Q 2772 3750 2511 3984  Q 2250 4219 1831 4219  Q 1534 4219 1204 4116  Q 875 4013 500 3803  L 500 4441  Q 881 4594 1212 4672  Q 1544 4750 1819 4750  Q 2544 4750 2975 4387  Q 3406 4025 3406 3419  Q 3406 3131 3298 2873  Q 3191 2616 2906 2266  Q 2828 2175 2409 1742  Q 1991 1309 1228 531  z "
                   transform="scale(0.015625)" />
                <path
                   id="DejaVuSans-31"
                   d="M 794 531  L 1825 531  L 1825 4091  L 703 3866  L 703 4441  L 1819 4666  L 2450 4666  L 2450 531  L 3481 531  L 3481 0  L 794 0  L 794 531  z "
                   transform="scale(0.015625)" />
                <path
                   id="DejaVuSans-30"
                   d="M 2034 4250  Q 1547 4250 1301 3770  Q 1056 3291 1056 2328  Q 1056 1369 1301 889  Q 1547 409 2034 409  Q 2525 409 2770 889  Q 3016 1369 3016 2328  Q 3016 3291 2770 3770  Q 2525 4250 2034 4250  z M 2034 4750  Q 2819 4750 3233 4129  Q 3647 3509 3647 2328  Q 3647 1150 3233 529  Q 2819 -91 2034 -91  Q 1250 -91 836 529  Q 422 1150 422 2328  Q 422 3509 836 4129  Q 1250 4750 2034 4750  z "
                   transform="scale(0.015625)" />
              </defs>
              <use
                 xlink:href="#DejaVuSans-32"
                 id="use27" />
              <use
                 xlink:href="#DejaVuSans-31"
                 x="63.623047"
                 id="use29" />
              <use
                 xlink:href="#DejaVuSans-30"
                 x="127.246094"
                 id="use31" />
            </g>
          </g>
        </g>
        <g
           id="xtick_2">
          <g
             id="line2d_2">
            <g
               id="g39">
              <use
                 xlink:href="#ma0a6022bca"
                 x="161.23125"
                 y="130.12"
                 style="stroke: #000000; stroke-width: 0.8"
                 id="use37" />
            </g>
          </g>
          <g
             id="text_2">
            <!-- 260 -->
            <g
               transform="translate(149.77875 146.238125) scale(0.12 -0.12)"
               id="g51">
              <defs
                 id="defs43">
                <path
                   id="DejaVuSans-36"
                   d="M 2113 2584  Q 1688 2584 1439 2293  Q 1191 2003 1191 1497  Q 1191 994 1439 701  Q 1688 409 2113 409  Q 2538 409 2786 701  Q 3034 994 3034 1497  Q 3034 2003 2786 2293  Q 2538 2584 2113 2584  z M 3366 4563  L 3366 3988  Q 3128 4100 2886 4159  Q 2644 4219 2406 4219  Q 1781 4219 1451 3797  Q 1122 3375 1075 2522  Q 1259 2794 1537 2939  Q 1816 3084 2150 3084  Q 2853 3084 3261 2657  Q 3669 2231 3669 1497  Q 3669 778 3244 343  Q 2819 -91 2113 -91  Q 1303 -91 875 529  Q 447 1150 447 2328  Q 447 3434 972 4092  Q 1497 4750 2381 4750  Q 2619 4750 2861 4703  Q 3103 4656 3366 4563  z "
                   transform="scale(0.015625)" />
              </defs>
              <use
                 xlink:href="#DejaVuSans-32"
                 id="use45" />
              <use
                 xlink:href="#DejaVuSans-36"
                 x="63.623047"
                 id="use47" />
              <use
                 xlink:href="#DejaVuSans-30"
                 x="127.246094"
                 id="use49" />
            </g>
          </g>
        </g>
        <g
           id="xtick_3">
          <g
             id="line2d_3">
            <g
               id="g57">
              <use
                 xlink:href="#ma0a6022bca"
                 x="243.3725"
                 y="130.12"
                 style="stroke: #000000; stroke-width: 0.8"
                 id="use55" />
            </g>
          </g>
          <g
             id="text_3">
            <!-- 310 -->
            <g
               transform="translate(231.92 146.238125) scale(0.12 -0.12)"
               id="g69">
              <defs
                 id="defs61">
                <path
                   id="DejaVuSans-33"
                   d="M 2597 2516  Q 3050 2419 3304 2112  Q 3559 1806 3559 1356  Q 3559 666 3084 287  Q 2609 -91 1734 -91  Q 1441 -91 1130 -33  Q 819 25 488 141  L 488 750  Q 750 597 1062 519  Q 1375 441 1716 441  Q 2309 441 2620 675  Q 2931 909 2931 1356  Q 2931 1769 2642 2001  Q 2353 2234 1838 2234  L 1294 2234  L 1294 2753  L 1863 2753  Q 2328 2753 2575 2939  Q 2822 3125 2822 3475  Q 2822 3834 2567 4026  Q 2313 4219 1838 4219  Q 1578 4219 1281 4162  Q 984 4106 628 3988  L 628 4550  Q 988 4650 1302 4700  Q 1616 4750 1894 4750  Q 2613 4750 3031 4423  Q 3450 4097 3450 3541  Q 3450 3153 3228 2886  Q 3006 2619 2597 2516  z "
                   transform="scale(0.015625)" />
              </defs>
              <use
                 xlink:href="#DejaVuSans-33"
                 id="use63" />
              <use
                 xlink:href="#DejaVuSans-31"
                 x="63.623047"
                 id="use65" />
              <use
                 xlink:href="#DejaVuSans-30"
                 x="127.246094"
                 id="use67" />
            </g>
          </g>
        </g>
        <g
           id="xtick_4">
          <g
             id="line2d_4">
            <g
               id="g75">
              <use
                 xlink:href="#ma0a6022bca"
                 x="325.51375"
                 y="130.12"
                 style="stroke: #000000; stroke-width: 0.8"
                 id="use73" />
            </g>
          </g>
          <g
             id="text_4">
            <!-- 360 -->
            <g
               transform="translate(314.06125 146.238125) scale(0.12 -0.12)"
               id="g84">
              <use
                 xlink:href="#DejaVuSans-33"
                 id="use78" />
              <use
                 xlink:href="#DejaVuSans-36"
                 x="63.623047"
                 id="use80" />
              <use
                 xlink:href="#DejaVuSans-30"
                 x="127.246094"
                 id="use82" />
            </g>
          </g>
        </g>
        <g
           id="xtick_5">
          <g
             id="line2d_5">
            <g
               id="g90">
              <use
                 xlink:href="#ma0a6022bca"
                 x="407.655"
                 y="130.12"
                 style="stroke: #000000; stroke-width: 0.8"
                 id="use88" />
            </g>
          </g>
          <g
             id="text_5">
            <!-- 410 -->
            <g
               transform="translate(396.2025 146.238125) scale(0.12 -0.12)"
               id="g102">
              <defs
                 id="defs94">
                <path
                   id="DejaVuSans-34"
                   d="M 2419 4116  L 825 1625  L 2419 1625  L 2419 4116  z M 2253 4666  L 3047 4666  L 3047 1625  L 3713 1625  L 3713 1100  L 3047 1100  L 3047 0  L 2419 0  L 2419 1100  L 313 1100  L 313 1709  L 2253 4666  z "
                   transform="scale(0.015625)" />
              </defs>
              <use
                 xlink:href="#DejaVuSans-34"
                 id="use96" />
              <use
                 xlink:href="#DejaVuSans-31"
                 x="63.623047"
                 id="use98" />
              <use
                 xlink:href="#DejaVuSans-30"
                 x="127.246094"
                 id="use100" />
            </g>
          </g>
        </g>
        <g
           id="text_6">
          <!-- points -->
          <g
             transform="translate(224.945 161.851875) scale(0.12 -0.12)"
             id="g126">
            <defs
               id="defs112">
              <path
                 id="DejaVuSans-70"
                 d="M 1159 525  L 1159 -1331  L 581 -1331  L 581 3500  L 1159 3500  L 1159 2969  Q 1341 3281 1617 3432  Q 1894 3584 2278 3584  Q 2916 3584 3314 3078  Q 3713 2572 3713 1747  Q 3713 922 3314 415  Q 2916 -91 2278 -91  Q 1894 -91 1617 61  Q 1341 213 1159 525  z M 3116 1747  Q 3116 2381 2855 2742  Q 2594 3103 2138 3103  Q 1681 3103 1420 2742  Q 1159 2381 1159 1747  Q 1159 1113 1420 752  Q 1681 391 2138 391  Q 2594 391 2855 752  Q 3116 1113 3116 1747  z "
                 transform="scale(0.015625)" />
              <path
                 id="DejaVuSans-6f"
                 d="M 1959 3097  Q 1497 3097 1228 2736  Q 959 2375 959 1747  Q 959 1119 1226 758  Q 1494 397 1959 397  Q 2419 397 2687 759  Q 2956 1122 2956 1747  Q 2956 2369 2687 2733  Q 2419 3097 1959 3097  z M 1959 3584  Q 2709 3584 3137 3096  Q 3566 2609 3566 1747  Q 3566 888 3137 398  Q 2709 -91 1959 -91  Q 1206 -91 779 398  Q 353 888 353 1747  Q 353 2609 779 3096  Q 1206 3584 1959 3584  z "
                 transform="scale(0.015625)" />
              <path
                 id="DejaVuSans-69"
                 d="M 603 3500  L 1178 3500  L 1178 0  L 603 0  L 603 3500  z M 603 4863  L 1178 4863  L 1178 4134  L 603 4134  L 603 4863  z "
                 transform="scale(0.015625)" />
              <path
                 id="DejaVuSans-6e"
                 d="M 3513 2113  L 3513 0  L 2938 0  L 2938 2094  Q 2938 2591 2744 2837  Q 2550 3084 2163 3084  Q 1697 3084 1428 2787  Q 1159 2491 1159 1978  L 1159 0  L 581 0  L 581 3500  L 1159 3500  L 1159 2956  Q 1366 3272 1645 3428  Q 1925 3584 2291 3584  Q 2894 3584 3203 3211  Q 3513 2838 3513 2113  z "
                 transform="scale(0.015625)" />
              <path
                 id="DejaVuSans-74"
                 d="M 1172 4494  L 1172 3500  L 2356 3500  L 2356 3053  L 1172 3053  L 1172 1153  Q 1172 725 1289 603  Q 1406 481 1766 481  L 2356 481  L 2356 0  L 1766 0  Q 1100 0 847 248  Q 594 497 594 1153  L 594 3053  L 172 3053  L 172 3500  L 594 3500  L 594 4494  L 1172 4494  z "
                 transform="scale(0.015625)" />
              <path
                 id="DejaVuSans-73"
                 d="M 2834 3397  L 2834 2853  Q 2591 2978 2328 3040  Q 2066 3103 1784 3103  Q 1356 3103 1142 2972  Q 928 2841 928 2578  Q 928 2378 1081 2264  Q 1234 2150 1697 2047  L 1894 2003  Q 2506 1872 2764 1633  Q 3022 1394 3022 966  Q 3022 478 2636 193  Q 2250 -91 1575 -91  Q 1294 -91 989 -36  Q 684 19 347 128  L 347 722  Q 666 556 975 473  Q 1284 391 1588 391  Q 1994 391 2212 530  Q 2431 669 2431 922  Q 2431 1156 2273 1281  Q 2116 1406 1581 1522  L 1381 1569  Q 847 1681 609 1914  Q 372 2147 372 2553  Q 372 3047 722 3315  Q 1072 3584 1716 3584  Q 2034 3584 2315 3537  Q 2597 3491 2834 3397  z "
                 transform="scale(0.015625)" />
            </defs>
            <use
               xlink:href="#DejaVuSans-70"
               id="use114" />
            <use
               xlink:href="#DejaVuSans-6f"
               x="63.476562"
               id="use116" />
            <use
               xlink:href="#DejaVuSans-69"
               x="124.658203"
               id="use118" />
            <use
               xlink:href="#DejaVuSans-6e"
               x="152.441406"
               id="use120" />
            <use
               xlink:href="#DejaVuSans-74"
               x="215.820312"
               id="use122" />
            <use
               xlink:href="#DejaVuSans-73"
               x="255.029297"
               id="use124" />
          </g>
        </g>
      </g>
      <g
         id="matplotlib.axis_2">
        <g
           id="ytick_1">
          <g
             id="line2d_6">
            <defs
               id="defs131">
              <path
                 id="m14436e568f"
                 d="M 0 0  L -3.5 0  "
                 style="stroke: #000000; stroke-width: 0.8" />
            </defs>
            <g
               id="g135">
              <use
                 xlink:href="#m14436e568f"
                 x="79.09"
                 y="100.83"
                 style="stroke: #000000; stroke-width: 0.8"
                 id="use133" />
            </g>
          </g>
          <g
             id="text_7">
            <!-- simulated -->
            <g
               transform="translate(12.8175 99.582187) scale(0.12 -0.12)"
               id="g164">
              <defs
                 id="defs144">
                <path
                   id="DejaVuSans-6d"
                   d="M 3328 2828  Q 3544 3216 3844 3400  Q 4144 3584 4550 3584  Q 5097 3584 5394 3201  Q 5691 2819 5691 2113  L 5691 0  L 5113 0  L 5113 2094  Q 5113 2597 4934 2840  Q 4756 3084 4391 3084  Q 3944 3084 3684 2787  Q 3425 2491 3425 1978  L 3425 0  L 2847 0  L 2847 2094  Q 2847 2600 2669 2842  Q 2491 3084 2119 3084  Q 1678 3084 1418 2786  Q 1159 2488 1159 1978  L 1159 0  L 581 0  L 581 3500  L 1159 3500  L 1159 2956  Q 1356 3278 1631 3431  Q 1906 3584 2284 3584  Q 2666 3584 2933 3390  Q 3200 3197 3328 2828  z "
                   transform="scale(0.015625)" />
                <path
                   id="DejaVuSans-75"
                   d="M 544 1381  L 544 3500  L 1119 3500  L 1119 1403  Q 1119 906 1312 657  Q 1506 409 1894 409  Q 2359 409 2629 706  Q 2900 1003 2900 1516  L 2900 3500  L 3475 3500  L 3475 0  L 2900 0  L 2900 538  Q 2691 219 2414 64  Q 2138 -91 1772 -91  Q 1169 -91 856 284  Q 544 659 544 1381  z M 1991 3584  L 1991 3584  z "
                   transform="scale(0.015625)" />
                <path
                   id="DejaVuSans-6c"
                   d="M 603 4863  L 1178 4863  L 1178 0  L 603 0  L 603 4863  z "
                   transform="scale(0.015625)" />
                <path
                   id="DejaVuSans-61"
                   d="M 2194 1759  Q 1497 1759 1228 1600  Q 959 1441 959 1056  Q 959 750 1161 570  Q 1363 391 1709 391  Q 2188 391 2477 730  Q 2766 1069 2766 1631  L 2766 1759  L 2194 1759  z M 3341 1997  L 3341 0  L 2766 0  L 2766 531  Q 2569 213 2275 61  Q 1981 -91 1556 -91  Q 1019 -91 701 211  Q 384 513 384 1019  Q 384 1609 779 1909  Q 1175 2209 1959 2209  L 2766 2209  L 2766 2266  Q 2766 2663 2505 2880  Q 2244 3097 1772 3097  Q 1472 3097 1187 3025  Q 903 2953 641 2809  L 641 3341  Q 956 3463 1253 3523  Q 1550 3584 1831 3584  Q 2591 3584 2966 3190  Q 3341 2797 3341 1997  z "
                   transform="scale(0.015625)" />
                <path
                   id="DejaVuSans-65"
                   d="M 3597 1894  L 3597 1613  L 953 1613  Q 991 1019 1311 708  Q 1631 397 2203 397  Q 2534 397 2845 478  Q 3156 559 3463 722  L 3463 178  Q 3153 47 2828 -22  Q 2503 -91 2169 -91  Q 1331 -91 842 396  Q 353 884 353 1716  Q 353 2575 817 3079  Q 1281 3584 2069 3584  Q 2775 3584 3186 3129  Q 3597 2675 3597 1894  z M 3022 2063  Q 3016 2534 2758 2815  Q 2500 3097 2075 3097  Q 1594 3097 1305 2825  Q 1016 2553 972 2059  L 3022 2063  z "
                   transform="scale(0.015625)" />
                <path
                   id="DejaVuSans-64"
                   d="M 2906 2969  L 2906 4863  L 3481 4863  L 3481 0  L 2906 0  L 2906 525  Q 2725 213 2448 61  Q 2172 -91 1784 -91  Q 1150 -91 751 415  Q 353 922 353 1747  Q 353 2572 751 3078  Q 1150 3584 1784 3584  Q 2172 3584 2448 3432  Q 2725 3281 2906 2969  z M 947 1747  Q 947 1113 1208 752  Q 1469 391 1925 391  Q 2381 391 2643 752  Q 2906 1113 2906 1747  Q 2906 2381 2643 2742  Q 2381 3103 1925 3103  Q 1469 3103 1208 2742  Q 947 2381 947 1747  z "
                   transform="scale(0.015625)" />
              </defs>
              <use
                 xlink:href="#DejaVuSans-73"
                 id="use146" />
              <use
                 xlink:href="#DejaVuSans-69"
                 x="52.099609"
                 id="use148" />
              <use
                 xlink:href="#DejaVuSans-6d"
                 x="79.882812"
                 id="use150" />
              <use
                 xlink:href="#DejaVuSans-75"
                 x="177.294922"
                 id="use152" />
              <use
                 xlink:href="#DejaVuSans-6c"
                 x="240.673828"
                 id="use154" />
              <use
                 xlink:href="#DejaVuSans-61"
                 x="268.457031"
                 id="use156" />
              <use
                 xlink:href="#DejaVuSans-74"
                 x="329.736328"
                 id="use158" />
              <use
                 xlink:href="#DejaVuSans-65"
                 x="368.945312"
                 id="use160" />
              <use
                 xlink:href="#DejaVuSans-64"
                 x="430.46875"
                 id="use162" />
            </g>
            <!-- strategy -->
            <g
               transform="translate(22.03875 113.019562) scale(0.12 -0.12)"
               id="g187">
              <defs
                 id="defs169">
                <path
                   id="DejaVuSans-72"
                   d="M 2631 2963  Q 2534 3019 2420 3045  Q 2306 3072 2169 3072  Q 1681 3072 1420 2755  Q 1159 2438 1159 1844  L 1159 0  L 581 0  L 581 3500  L 1159 3500  L 1159 2956  Q 1341 3275 1631 3429  Q 1922 3584 2338 3584  Q 2397 3584 2469 3576  Q 2541 3569 2628 3553  L 2631 2963  z "
                   transform="scale(0.015625)" />
                <path
                   id="DejaVuSans-67"
                   d="M 2906 1791  Q 2906 2416 2648 2759  Q 2391 3103 1925 3103  Q 1463 3103 1205 2759  Q 947 2416 947 1791  Q 947 1169 1205 825  Q 1463 481 1925 481  Q 2391 481 2648 825  Q 2906 1169 2906 1791  z M 3481 434  Q 3481 -459 3084 -895  Q 2688 -1331 1869 -1331  Q 1566 -1331 1297 -1286  Q 1028 -1241 775 -1147  L 775 -588  Q 1028 -725 1275 -790  Q 1522 -856 1778 -856  Q 2344 -856 2625 -561  Q 2906 -266 2906 331  L 2906 616  Q 2728 306 2450 153  Q 2172 0 1784 0  Q 1141 0 747 490  Q 353 981 353 1791  Q 353 2603 747 3093  Q 1141 3584 1784 3584  Q 2172 3584 2450 3431  Q 2728 3278 2906 2969  L 2906 3500  L 3481 3500  L 3481 434  z "
                   transform="scale(0.015625)" />
                <path
                   id="DejaVuSans-79"
                   d="M 2059 -325  Q 1816 -950 1584 -1140  Q 1353 -1331 966 -1331  L 506 -1331  L 506 -850  L 844 -850  Q 1081 -850 1212 -737  Q 1344 -625 1503 -206  L 1606 56  L 191 3500  L 800 3500  L 1894 763  L 2988 3500  L 3597 3500  L 2059 -325  z "
                   transform="scale(0.015625)" />
              </defs>
              <use
                 xlink:href="#DejaVuSans-73"
                 id="use171" />
              <use
                 xlink:href="#DejaVuSans-74"
                 x="52.099609"
                 id="use173" />
              <use
                 xlink:href="#DejaVuSans-72"
                 x="91.308594"
                 id="use175" />
              <use
                 xlink:href="#DejaVuSans-61"
                 x="132.421875"
                 id="use177" />
              <use
                 xlink:href="#DejaVuSans-74"
                 x="193.701172"
                 id="use179" />
              <use
                 xlink:href="#DejaVuSans-65"
                 x="232.910156"
                 id="use181" />
              <use
                 xlink:href="#DejaVuSans-67"
                 x="294.433594"
                 id="use183" />
              <use
                 xlink:href="#DejaVuSans-79"
                 x="357.910156"
                 id="use185" />
            </g>
          </g>
        </g>
        <g
           id="ytick_2">
          <g
             id="line2d_7">
            <g
               id="g193">
              <use
                 xlink:href="#m14436e568f"
                 x="79.09"
                 y="42.25"
                 style="stroke: #000000; stroke-width: 0.8"
                 id="use191" />
            </g>
          </g>
          <g
             id="text_8">
            <!-- actual -->
            <g
               transform="translate(35.14125 41.002187) scale(0.12 -0.12)"
               id="g211">
              <defs
                 id="defs197">
                <path
                   id="DejaVuSans-63"
                   d="M 3122 3366  L 3122 2828  Q 2878 2963 2633 3030  Q 2388 3097 2138 3097  Q 1578 3097 1268 2742  Q 959 2388 959 1747  Q 959 1106 1268 751  Q 1578 397 2138 397  Q 2388 397 2633 464  Q 2878 531 3122 666  L 3122 134  Q 2881 22 2623 -34  Q 2366 -91 2075 -91  Q 1284 -91 818 406  Q 353 903 353 1747  Q 353 2603 823 3093  Q 1294 3584 2113 3584  Q 2378 3584 2631 3529  Q 2884 3475 3122 3366  z "
                   transform="scale(0.015625)" />
              </defs>
              <use
                 xlink:href="#DejaVuSans-61"
                 id="use199" />
              <use
                 xlink:href="#DejaVuSans-63"
                 x="61.279297"
                 id="use201" />
              <use
                 xlink:href="#DejaVuSans-74"
                 x="116.259766"
                 id="use203" />
              <use
                 xlink:href="#DejaVuSans-75"
                 x="155.46875"
                 id="use205" />
              <use
                 xlink:href="#DejaVuSans-61"
                 x="218.847656"
                 id="use207" />
              <use
                 xlink:href="#DejaVuSans-6c"
                 x="280.126953"
                 id="use209" />
            </g>
            <!-- data -->
            <g
               transform="translate(45.06 54.439562) scale(0.12 -0.12)"
               id="g221">
              <use
                 xlink:href="#DejaVuSans-64"
                 id="use213" />
              <use
                 xlink:href="#DejaVuSans-61"
                 x="63.476562"
                 id="use215" />
              <use
                 xlink:href="#DejaVuSans-74"
                 x="124.755859"
                 id="use217" />
              <use
                 xlink:href="#DejaVuSans-61"
                 x="163.964844"
                 id="use219" />
            </g>
          </g>
        </g>
      </g>
      <g
         id="line2d_8">
        <path
           d="M 254.872275 105.2235  L 254.872275 96.4365  L 271.300525 96.4365  L 271.300525 105.2235  L 254.872275 105.2235  "
           clip-path="url(#p2bc6ce478f)"
           style="fill: none; stroke: #000000; stroke-linecap: square"
           id="path226" />
      </g>
      <g
         id="line2d_9">
        <path
           d="M 254.872275 100.83  L 230.2299 100.83  "
           clip-path="url(#p2bc6ce478f)"
           style="fill: none; stroke: #000000; stroke-linecap: square"
           id="path229" />
      </g>
      <g
         id="line2d_10">
        <path
           d="M 271.300525 100.83  L 295.9429 100.83  "
           clip-path="url(#p2bc6ce478f)"
           style="fill: none; stroke: #000000; stroke-linecap: square"
           id="path232" />
      </g>
      <g
         id="line2d_11">
        <path
           d="M 230.2299 103.02675  L 230.2299 98.63325  "
           clip-path="url(#p2bc6ce478f)"
           style="fill: none; stroke: #000000; stroke-linecap: square"
           id="path235" />
      </g>
      <g
         id="line2d_12">
        <path
           d="M 295.9429 103.02675  L 295.9429 98.63325  "
           clip-path="url(#p2bc6ce478f)"
           style="fill: none; stroke: #000000; stroke-linecap: square"
           id="path238" />
      </g>
      <g
         id="line2d_13">
        <defs
           id="defs242">
          <path
             id="me2182cb832"
             d="M 0 3  C 0.795609 3 1.55874 2.683901 2.12132 2.12132  C 2.683901 1.55874 3 0.795609 3 0  C 3 -0.795609 2.683901 -1.55874 2.12132 -2.12132  C 1.55874 -2.683901 0.795609 -3 0 -3  C -0.795609 -3 -1.55874 -2.683901 -2.12132 -2.12132  C -2.683901 -1.55874 -3 -0.795609 -3 0  C -3 0.795609 -2.683901 1.55874 -2.12132 2.12132  C -1.55874 2.683901 -0.795609 3 0 3  z "
             style="stroke: #000000" />
        </defs>
        <g
           clip-path="url(#p2bc6ce478f)"
           id="g376">
          <use
             xlink:href="#me2182cb832"
             x="226.94425"
             y="100.83"
             style="fill-opacity: 0; stroke: #000000"
             id="use244" />
          <use
             xlink:href="#me2182cb832"
             x="229.408487"
             y="100.83"
             style="fill-opacity: 0; stroke: #000000"
             id="use246" />
          <use
             xlink:href="#me2182cb832"
             x="225.301425"
             y="100.83"
             style="fill-opacity: 0; stroke: #000000"
             id="use248" />
          <use
             xlink:href="#me2182cb832"
             x="223.6586"
             y="100.83"
             style="fill-opacity: 0; stroke: #000000"
             id="use250" />
          <use
             xlink:href="#me2182cb832"
             x="226.122837"
             y="100.83"
             style="fill-opacity: 0; stroke: #000000"
             id="use252" />
          <use
             xlink:href="#me2182cb832"
             x="223.6586"
             y="100.83"
             style="fill-opacity: 0; stroke: #000000"
             id="use254" />
          <use
             xlink:href="#me2182cb832"
             x="225.301425"
             y="100.83"
             style="fill-opacity: 0; stroke: #000000"
             id="use256" />
          <use
             xlink:href="#me2182cb832"
             x="225.301425"
             y="100.83"
             style="fill-opacity: 0; stroke: #000000"
             id="use258" />
          <use
             xlink:href="#me2182cb832"
             x="226.94425"
             y="100.83"
             style="fill-opacity: 0; stroke: #000000"
             id="use260" />
          <use
             xlink:href="#me2182cb832"
             x="229.408487"
             y="100.83"
             style="fill-opacity: 0; stroke: #000000"
             id="use262" />
          <use
             xlink:href="#me2182cb832"
             x="229.408487"
             y="100.83"
             style="fill-opacity: 0; stroke: #000000"
             id="use264" />
          <use
             xlink:href="#me2182cb832"
             x="223.6586"
             y="100.83"
             style="fill-opacity: 0; stroke: #000000"
             id="use266" />
          <use
             xlink:href="#me2182cb832"
             x="222.015775"
             y="100.83"
             style="fill-opacity: 0; stroke: #000000"
             id="use268" />
          <use
             xlink:href="#me2182cb832"
             x="227.765662"
             y="100.83"
             style="fill-opacity: 0; stroke: #000000"
             id="use270" />
          <use
             xlink:href="#me2182cb832"
             x="226.94425"
             y="100.83"
             style="fill-opacity: 0; stroke: #000000"
             id="use272" />
          <use
             xlink:href="#me2182cb832"
             x="223.6586"
             y="100.83"
             style="fill-opacity: 0; stroke: #000000"
             id="use274" />
          <use
             xlink:href="#me2182cb832"
             x="223.6586"
             y="100.83"
             style="fill-opacity: 0; stroke: #000000"
             id="use276" />
          <use
             xlink:href="#me2182cb832"
             x="226.94425"
             y="100.83"
             style="fill-opacity: 0; stroke: #000000"
             id="use278" />
          <use
             xlink:href="#me2182cb832"
             x="229.408487"
             y="100.83"
             style="fill-opacity: 0; stroke: #000000"
             id="use280" />
          <use
             xlink:href="#me2182cb832"
             x="228.587075"
             y="100.83"
             style="fill-opacity: 0; stroke: #000000"
             id="use282" />
          <use
             xlink:href="#me2182cb832"
             x="226.122837"
             y="100.83"
             style="fill-opacity: 0; stroke: #000000"
             id="use284" />
          <use
             xlink:href="#me2182cb832"
             x="229.408487"
             y="100.83"
             style="fill-opacity: 0; stroke: #000000"
             id="use286" />
          <use
             xlink:href="#me2182cb832"
             x="226.122837"
             y="100.83"
             style="fill-opacity: 0; stroke: #000000"
             id="use288" />
          <use
             xlink:href="#me2182cb832"
             x="229.408487"
             y="100.83"
             style="fill-opacity: 0; stroke: #000000"
             id="use290" />
          <use
             xlink:href="#me2182cb832"
             x="224.480012"
             y="100.83"
             style="fill-opacity: 0; stroke: #000000"
             id="use292" />
          <use
             xlink:href="#me2182cb832"
             x="229.408487"
             y="100.83"
             style="fill-opacity: 0; stroke: #000000"
             id="use294" />
          <use
             xlink:href="#me2182cb832"
             x="228.587075"
             y="100.83"
             style="fill-opacity: 0; stroke: #000000"
             id="use296" />
          <use
             xlink:href="#me2182cb832"
             x="225.301425"
             y="100.83"
             style="fill-opacity: 0; stroke: #000000"
             id="use298" />
          <use
             xlink:href="#me2182cb832"
             x="226.94425"
             y="100.83"
             style="fill-opacity: 0; stroke: #000000"
             id="use300" />
          <use
             xlink:href="#me2182cb832"
             x="229.408487"
             y="100.83"
             style="fill-opacity: 0; stroke: #000000"
             id="use302" />
          <use
             xlink:href="#me2182cb832"
             x="222.015775"
             y="100.83"
             style="fill-opacity: 0; stroke: #000000"
             id="use304" />
          <use
             xlink:href="#me2182cb832"
             x="229.408487"
             y="100.83"
             style="fill-opacity: 0; stroke: #000000"
             id="use306" />
          <use
             xlink:href="#me2182cb832"
             x="229.408487"
             y="100.83"
             style="fill-opacity: 0; stroke: #000000"
             id="use308" />
          <use
             xlink:href="#me2182cb832"
             x="225.301425"
             y="100.83"
             style="fill-opacity: 0; stroke: #000000"
             id="use310" />
          <use
             xlink:href="#me2182cb832"
             x="228.587075"
             y="100.83"
             style="fill-opacity: 0; stroke: #000000"
             id="use312" />
          <use
             xlink:href="#me2182cb832"
             x="227.765662"
             y="100.83"
             style="fill-opacity: 0; stroke: #000000"
             id="use314" />
          <use
             xlink:href="#me2182cb832"
             x="226.122837"
             y="100.83"
             style="fill-opacity: 0; stroke: #000000"
             id="use316" />
          <use
             xlink:href="#me2182cb832"
             x="223.6586"
             y="100.83"
             style="fill-opacity: 0; stroke: #000000"
             id="use318" />
          <use
             xlink:href="#me2182cb832"
             x="297.585725"
             y="100.83"
             style="fill-opacity: 0; stroke: #000000"
             id="use320" />
          <use
             xlink:href="#me2182cb832"
             x="313.192562"
             y="100.83"
             style="fill-opacity: 0; stroke: #000000"
             id="use322" />
          <use
             xlink:href="#me2182cb832"
             x="301.692787"
             y="100.83"
             style="fill-opacity: 0; stroke: #000000"
             id="use324" />
          <use
             xlink:href="#me2182cb832"
             x="298.407137"
             y="100.83"
             style="fill-opacity: 0; stroke: #000000"
             id="use326" />
          <use
             xlink:href="#me2182cb832"
             x="299.22855"
             y="100.83"
             style="fill-opacity: 0; stroke: #000000"
             id="use328" />
          <use
             xlink:href="#me2182cb832"
             x="302.5142"
             y="100.83"
             style="fill-opacity: 0; stroke: #000000"
             id="use330" />
          <use
             xlink:href="#me2182cb832"
             x="298.407137"
             y="100.83"
             style="fill-opacity: 0; stroke: #000000"
             id="use332" />
          <use
             xlink:href="#me2182cb832"
             x="298.407137"
             y="100.83"
             style="fill-opacity: 0; stroke: #000000"
             id="use334" />
          <use
             xlink:href="#me2182cb832"
             x="306.621262"
             y="100.83"
             style="fill-opacity: 0; stroke: #000000"
             id="use336" />
          <use
             xlink:href="#me2182cb832"
             x="296.764312"
             y="100.83"
             style="fill-opacity: 0; stroke: #000000"
             id="use338" />
          <use
             xlink:href="#me2182cb832"
             x="297.585725"
             y="100.83"
             style="fill-opacity: 0; stroke: #000000"
             id="use340" />
          <use
             xlink:href="#me2182cb832"
             x="296.764312"
             y="100.83"
             style="fill-opacity: 0; stroke: #000000"
             id="use342" />
          <use
             xlink:href="#me2182cb832"
             x="296.764312"
             y="100.83"
             style="fill-opacity: 0; stroke: #000000"
             id="use344" />
          <use
             xlink:href="#me2182cb832"
             x="299.22855"
             y="100.83"
             style="fill-opacity: 0; stroke: #000000"
             id="use346" />
          <use
             xlink:href="#me2182cb832"
             x="296.764312"
             y="100.83"
             style="fill-opacity: 0; stroke: #000000"
             id="use348" />
          <use
             xlink:href="#me2182cb832"
             x="298.407137"
             y="100.83"
             style="fill-opacity: 0; stroke: #000000"
             id="use350" />
          <use
             xlink:href="#me2182cb832"
             x="296.764312"
             y="100.83"
             style="fill-opacity: 0; stroke: #000000"
             id="use352" />
          <use
             xlink:href="#me2182cb832"
             x="297.585725"
             y="100.83"
             style="fill-opacity: 0; stroke: #000000"
             id="use354" />
          <use
             xlink:href="#me2182cb832"
             x="296.764312"
             y="100.83"
             style="fill-opacity: 0; stroke: #000000"
             id="use356" />
          <use
             xlink:href="#me2182cb832"
             x="296.764312"
             y="100.83"
             style="fill-opacity: 0; stroke: #000000"
             id="use358" />
          <use
             xlink:href="#me2182cb832"
             x="298.407137"
             y="100.83"
             style="fill-opacity: 0; stroke: #000000"
             id="use360" />
          <use
             xlink:href="#me2182cb832"
             x="297.585725"
             y="100.83"
             style="fill-opacity: 0; stroke: #000000"
             id="use362" />
          <use
             xlink:href="#me2182cb832"
             x="297.585725"
             y="100.83"
             style="fill-opacity: 0; stroke: #000000"
             id="use364" />
          <use
             xlink:href="#me2182cb832"
             x="304.157025"
             y="100.83"
             style="fill-opacity: 0; stroke: #000000"
             id="use366" />
          <use
             xlink:href="#me2182cb832"
             x="297.585725"
             y="100.83"
             style="fill-opacity: 0; stroke: #000000"
             id="use368" />
          <use
             xlink:href="#me2182cb832"
             x="300.871375"
             y="100.83"
             style="fill-opacity: 0; stroke: #000000"
             id="use370" />
          <use
             xlink:href="#me2182cb832"
             x="307.442675"
             y="100.83"
             style="fill-opacity: 0; stroke: #000000"
             id="use372" />
          <use
             xlink:href="#me2182cb832"
             x="296.764312"
             y="100.83"
             style="fill-opacity: 0; stroke: #000000"
             id="use374" />
        </g>
      </g>
      <g
         id="line2d_14">
        <path
           d="M 293.889369 46.6435  L 293.889369 37.8565  L 321.612041 37.8565  L 321.612041 46.6435  L 293.889369 46.6435  "
           clip-path="url(#p2bc6ce478f)"
           style="fill: none; stroke: #000000; stroke-linecap: square"
           id="path379" />
      </g>
      <g
         id="line2d_15">
        <path
           d="M 293.889369 42.25  L 268.014875 42.25  "
           clip-path="url(#p2bc6ce478f)"
           style="fill: none; stroke: #000000; stroke-linecap: square"
           id="path382" />
      </g>
      <g
         id="line2d_16">
        <path
           d="M 321.612041 42.25  L 350.977537 42.25  "
           clip-path="url(#p2bc6ce478f)"
           style="fill: none; stroke: #000000; stroke-linecap: square"
           id="path385" />
      </g>
      <g
         id="line2d_17">
        <path
           d="M 268.014875 44.44675  L 268.014875 40.05325  "
           clip-path="url(#p2bc6ce478f)"
           style="fill: none; stroke: #000000; stroke-linecap: square"
           id="path388" />
      </g>
      <g
         id="line2d_18">
        <path
           d="M 350.977537 44.44675  L 350.977537 40.05325  "
           clip-path="url(#p2bc6ce478f)"
           style="fill: none; stroke: #000000; stroke-linecap: square"
           id="path391" />
      </g>
      <g
         id="line2d_19">
        <g
           clip-path="url(#p2bc6ce478f)"
           id="g398">
          <use
             xlink:href="#me2182cb832"
             x="227.765662"
             y="42.25"
             style="fill-opacity: 0; stroke: #000000"
             id="use394" />
          <use
             xlink:href="#me2182cb832"
             x="379.726975"
             y="42.25"
             style="fill-opacity: 0; stroke: #000000"
             id="use396" />
        </g>
      </g>
      <g
         id="line2d_20">
        <path
           d="M 282.8003 124.262  L 282.8003 18.818  "
           clip-path="url(#p2bc6ce478f)"
           style="fill: none; stroke-dasharray: 5.55,2.4; stroke-dashoffset: 0; stroke: #0000ff; stroke-width: 1.5"
           id="path401" />
      </g>
      <g
         id="line2d_21">
        <path
           d="M 263.0864 105.2235  L 263.0864 96.4365  "
           clip-path="url(#p2bc6ce478f)"
           style="fill: none; stroke: #ff7f0e; stroke-linecap: square"
           id="path404" />
      </g>
      <g
         id="line2d_22">
        <path
           d="M 308.674794 46.6435  L 308.674794 37.8565  "
           clip-path="url(#p2bc6ce478f)"
           style="fill: none; stroke: #ff7f0e; stroke-linecap: square"
           id="path407" />
      </g>
      <g
         id="patch_3">
        <path
           d="M 79.09 130.12  L 79.09 12.96  "
           style="fill: none; stroke: #000000; stroke-width: 0.8; stroke-linejoin: miter; stroke-linecap: square"
           id="path410" />
      </g>
      <g
         id="patch_4">
        <path
           d="M 407.655 130.12  L 407.655 12.96  "
           style="fill: none; stroke: #000000; stroke-width: 0.8; stroke-linejoin: miter; stroke-linecap: square"
           id="path413" />
      </g>
      <g
         id="patch_5">
        <path
           d="M 79.09 130.12  L 407.655 130.12  "
           style="fill: none; stroke: #000000; stroke-width: 0.8; stroke-linejoin: miter; stroke-linecap: square"
           id="path416" />
      </g>
      <g
         id="patch_6">
        <path
           d="M 79.09 12.96  L 407.655 12.96  "
           style="fill: none; stroke: #000000; stroke-width: 0.8; stroke-linejoin: miter; stroke-linecap: square"
           id="path419" />
      </g>
      <g
         id="legend_1">
        <g
           id="patch_7">
          <path
             d="M 87.49 40.17375  L 162.893125 40.17375  Q 165.293125 40.17375 165.293125 37.77375  L 165.293125 21.36  Q 165.293125 18.96 162.893125 18.96  L 87.49 18.96  Q 85.09 18.96 85.09 21.36  L 85.09 37.77375  Q 85.09 40.17375 87.49 40.17375  z "
             style="fill: #ffffff; opacity: 0.8; stroke: #cccccc; stroke-linejoin: miter"
             id="path422" />
        </g>
        <g
           id="line2d_23">
          <path
             d="M 89.89 28.678125  L 101.89 28.678125  L 113.89 28.678125  "
             style="fill: none; stroke-dasharray: 5.55,2.4; stroke-dashoffset: 0; stroke: #0000ff; stroke-width: 1.5"
             id="path425" />
        </g>
        <g
           id="text_9">
          <!-- α=5% -->
          <g
             transform="translate(123.49 32.878125) scale(0.12 -0.12)"
             id="g442">
            <defs
               id="defs432">
              <path
                 id="DejaVuSans-3b1"
                 d="M 2644 1628  L 2506 2350  Q 2366 3091 1809 3091  Q 1391 3091 1200 2747  Q 959 2316 959 1747  Q 959 1059 1194 731  Q 1431 397 1809 397  Q 2228 397 2453 1063  L 2644 1628  z M 2966 2584  L 3275 3500  L 3788 3500  L 3147 1603  L 3272 919  Q 3300 766 3409 638  Q 3538 488 3638 488  L 3913 488  L 3913 0  L 3569 0  Q 3275 0 3013 263  Q 2884 394 2831 669  Q 2688 322 2394 50  Q 2256 -78 1809 -78  Q 1075 -78 719 397  Q 353 888 353 1747  Q 353 2666 750 3097  Q 1191 3578 1809 3578  Q 2781 3578 2966 2584  z "
                 transform="scale(0.015625)" />
              <path
                 id="DejaVuSans-3d"
                 d="M 678 2906  L 4684 2906  L 4684 2381  L 678 2381  L 678 2906  z M 678 1631  L 4684 1631  L 4684 1100  L 678 1100  L 678 1631  z "
                 transform="scale(0.015625)" />
              <path
                 id="DejaVuSans-35"
                 d="M 691 4666  L 3169 4666  L 3169 4134  L 1269 4134  L 1269 2991  Q 1406 3038 1543 3061  Q 1681 3084 1819 3084  Q 2600 3084 3056 2656  Q 3513 2228 3513 1497  Q 3513 744 3044 326  Q 2575 -91 1722 -91  Q 1428 -91 1123 -41  Q 819 9 494 109  L 494 744  Q 775 591 1075 516  Q 1375 441 1709 441  Q 2250 441 2565 725  Q 2881 1009 2881 1497  Q 2881 1984 2565 2268  Q 2250 2553 1709 2553  Q 1456 2553 1204 2497  Q 953 2441 691 2322  L 691 4666  z "
                 transform="scale(0.015625)" />
              <path
                 id="DejaVuSans-25"
                 d="M 4653 2053  Q 4381 2053 4226 1822  Q 4072 1591 4072 1178  Q 4072 772 4226 539  Q 4381 306 4653 306  Q 4919 306 5073 539  Q 5228 772 5228 1178  Q 5228 1588 5073 1820  Q 4919 2053 4653 2053  z M 4653 2450  Q 5147 2450 5437 2106  Q 5728 1763 5728 1178  Q 5728 594 5436 251  Q 5144 -91 4653 -91  Q 4153 -91 3862 251  Q 3572 594 3572 1178  Q 3572 1766 3864 2108  Q 4156 2450 4653 2450  z M 1428 4353  Q 1159 4353 1004 4120  Q 850 3888 850 3481  Q 850 3069 1003 2837  Q 1156 2606 1428 2606  Q 1700 2606 1854 2837  Q 2009 3069 2009 3481  Q 2009 3884 1853 4118  Q 1697 4353 1428 4353  z M 4250 4750  L 4750 4750  L 1831 -91  L 1331 -91  L 4250 4750  z M 1428 4750  Q 1922 4750 2215 4408  Q 2509 4066 2509 3481  Q 2509 2891 2217 2550  Q 1925 2209 1428 2209  Q 931 2209 642 2551  Q 353 2894 353 3481  Q 353 4063 643 4406  Q 934 4750 1428 4750  z "
                 transform="scale(0.015625)" />
            </defs>
            <use
               xlink:href="#DejaVuSans-3b1"
               id="use434" />
            <use
               xlink:href="#DejaVuSans-3d"
               x="65.917969"
               id="use436" />
            <use
               xlink:href="#DejaVuSans-35"
               x="149.707031"
               id="use438" />
            <use
               xlink:href="#DejaVuSans-25"
               x="213.330078"
               id="use440" />
          </g>
        </g>
      </g>
    </g>
  </g>
  <defs
     id="defs451">
    <clipPath
       id="p2bc6ce478f">
      <rect
         x="79.09"
         y="12.96"
         width="328.565"
         height="117.16"
         id="rect448" />
    </clipPath>
  </defs>
</svg>
